<?xml version="1.0" encoding="utf-8"?>
<!-- Generator: Adobe Illustrator 23.0.3, SVG Export Plug-In . SVG Version: 6.00 Build 0)  -->
<svg version="1.1" id="Layer_1" xmlns="http://www.w3.org/2000/svg" xmlns:xlink="http://www.w3.org/1999/xlink" x="0px" y="0px"
	 viewBox="0 0 955.07 149.99" style="enable-background:new 0 0 955.07 149.99;" xml:space="preserve">
<style type="text/css">
	.st0{opacity:0.55;}
	.st1{enable-background:new    ;}
	.st2{fill:#2E4882;}
</style>
<g>
	<g>
		<g class="st0">
			<g class="st1">
				<path d="M37.71,29.93h41.32l-5.05,12.75H38.85L33.8,74l28.14-18.92c7.4,3.23,13,7.48,16.78,12.75
					c3.79,5.27,5.68,11.02,5.68,17.26c0,7.97-2.64,15.31-7.92,22.01c-5.28,6.71-14.24,11.22-26.88,13.54l-25.3-15.21l9.51-10.32
					l30.33,17.69c2.97-2.48,5.05-4.85,6.24-7.1c1.81-3.36,2.72-6.88,2.72-10.56c0-6.11-1.87-11.59-5.61-16.46
					c-3.74-4.87-9.71-8.72-17.9-11.55L29.67,80.41L37.71,29.93z"/>
				<path d="M124.4,28.73c10.05,3.45,17.87,8.98,23.45,16.57c5.58,7.59,8.37,16.52,8.37,26.79c0,10.09-2.59,19.27-7.78,27.52
					c-5.19,8.26-12.21,15.26-21.08,21.02c-6.35-1.49-12.11-4.32-17.28-8.48c-5.17-4.16-9.12-9.34-11.85-15.54
					c-2.73-6.2-4.1-12.64-4.1-19.33c0-9.56,2.74-18.86,8.23-27.9C107.86,40.36,115.2,33.47,124.4,28.73z M112.92,40.95
					c-6.15,6.95-9.22,15.32-9.22,25.1c0,6.91,1.48,13.41,4.45,19.52c2.97,6.11,7.21,11.16,12.72,15.14
					c5.51,3.98,11.15,6.4,16.9,7.24c3.21-4.38,5.49-8.49,6.85-12.32c1.36-3.83,2.04-8.07,2.04-12.72c0-6.38-1.3-12.45-3.89-18.23
					s-6.48-10.67-11.66-14.68C125.94,46.01,119.87,42.99,112.92,40.95z"/>
			</g>
			<g class="st1">
				<path d="M196.02,78.47c-6.02-1.9-10.76-5.02-14.21-9.36c-3.45-4.34-5.18-9.03-5.18-14.08c0-5.13,1.75-10.13,5.25-14.97
					s8.21-8.62,14.14-11.32c4.12,1.68,7.22,3.34,9.3,4.98c3.23,2.57,5.7,5.41,7.4,8.53s2.56,6.39,2.56,9.79
					c0,3.5-0.91,7.04-2.72,10.63s-4.23,6.77-7.24,9.56C203.24,74.13,200.14,76.21,196.02,78.47z M202.26,69.51
					c1.73-2.48,2.91-4.65,3.55-6.51s0.96-3.9,0.96-6.11c0-3.9-1.43-7.58-4.28-11.06c-2.86-3.47-7.12-6.12-12.78-7.94
					c-3.1,3.32-4.65,7.53-4.65,12.62c0,3.98,1.34,7.63,4.02,10.92C191.76,64.74,196.15,67.43,202.26,69.51z M200.71,125.16h-8.68
					l60.37-96.82h8.76L200.71,125.16z M259.44,120.64c-6.02-1.9-10.76-5.02-14.21-9.36c-3.45-4.34-5.18-9.03-5.18-14.08
					c0-5.13,1.75-10.13,5.25-14.97s8.21-8.62,14.14-11.32c4.07,1.68,7.17,3.34,9.3,4.98c3.23,2.52,5.7,5.36,7.4,8.5
					c1.7,3.14,2.56,6.42,2.56,9.83c0,3.5-0.91,7.03-2.72,10.59c-1.82,3.56-4.23,6.76-7.24,9.6
					C266.66,116.3,263.56,118.38,259.44,120.64z M265.68,111.67c1.73-2.48,2.91-4.65,3.55-6.51s0.96-3.9,0.96-6.11
					c0-3.9-1.43-7.58-4.28-11.06c-2.86-3.47-7.12-6.12-12.78-7.94c-3.1,3.32-4.65,7.53-4.65,12.62c0,3.98,1.33,7.63,3.98,10.92
					C255.12,106.91,259.53,109.59,265.68,111.67z"/>
			</g>
			<g class="st1">
				<path d="M346.92,29.66l1.63,1.86c-6.6,4.47-11.51,9.25-14.74,14.34c-4.16,6.55-6.24,13.68-6.24,21.38
					c0,9.34,3.08,17.97,9.23,25.9c2.66-2.17,4.25-4,4.78-5.48c0.53-1.48,0.8-5.54,0.8-12.19V45.73l28.46-23.71
					c6.63,2.61,11.84,4.31,15.64,5.08c3.8,0.78,8.26,1.16,13.38,1.16h1.52l1.1,2.42l-10.96,10.46c-7.35-0.8-15.66-3.5-24.9-8.1
					l0.66,75.84l2.52,0.07c6.36,0,12.15-1.09,17.38-3.27c5.23-2.18,10.65-5.72,16.26-10.61l2.03,1.96
					c-4.12,5.68-8.16,10.09-12.12,13.23c-3.96,3.15-8.73,5.66-14.31,7.55c-5.58,1.88-11.11,2.83-16.6,2.83
					c-8.15,0-15.82-1.97-23.01-5.91c-7.19-3.94-12.83-9.58-16.9-16.93c-4.07-7.35-6.11-14.92-6.11-22.71c0-9.61,2.87-18.5,8.62-26.7
					C329.54,41.97,336.83,35.73,346.92,29.66z M363.55,32.58l-7.77,6.73v30.31c0,3.77-0.2,6.27-0.6,7.51
					c-0.44,1.64-1.47,3.39-3.06,5.25c-3.24,3.77-7.77,8.07-13.59,12.9c3.55,3.94,7.35,6.96,11.41,9.05c4.06,2.1,8.82,3.5,14.27,4.21
					L363.55,32.58z"/>
				<path d="M461.8,59.55v49.67c-6.65,2.7-11.46,4.91-14.43,6.64c-2.26,1.28-4.43,2.88-6.52,4.78c-6.43-3.9-11.75-6.6-15.96-8.1
					c-3.19-1.15-6.8-1.81-10.84-1.99l-0.66-1.33c1.68-1.42,2.74-2.7,3.19-3.85c0.62-1.5,0.93-4.05,0.93-7.64V61.27
					c8.11-2.7,15.05-6.51,20.82-11.42C444.62,54.01,452.44,57.24,461.8,59.55z M430.92,102.78l17.33,7.11V67.71
					c-5.45-2.55-9.3-4.23-11.55-5.03c-1.59-0.58-3.52-1.07-5.78-1.48V102.78z"/>
				<path d="M563.7,53.77l1.93,1.79c-2.55,2.21-4.26,3.98-5.13,5.31c-0.87,1.33-1.44,2.65-1.71,3.98c-0.27,1.33-0.4,4.05-0.4,8.16
					v27.59c0,3.63,0.36,6.04,1.08,7.23c0.72,1.19,1.39,1.79,2.03,1.79c0.89,0,2.43-0.91,4.63-2.72l1.63,2.06l-14.38,11.69
					c-3.29-2.56-5.42-4.69-6.4-6.37c-1.42-2.48-2.13-5.11-2.13-7.89v-40l-6.65-5.77l-10.55,9.86v35.9l4.98,5.35l-11.59,8.93
					l-11.79-8.93l4.85-5.35V73.37c0-3.85-0.29-6.33-0.86-7.44c-0.8-1.5-2.72-3.3-5.77-5.38l-10.51,8.82v36.99l5.11,5.35l-11.65,8.93
					l-11.92-8.93l5.18-5.35V70.84c0-3.67-0.46-6.33-1.38-7.97c-0.72-1.24-1.38-1.86-1.98-1.86c-0.72,0-2.18,0.86-4.38,2.59
					l-1.63-2.06l13.78-11.69c3.02,2.13,5.08,3.86,6.17,5.21c1.09,1.35,1.85,2.82,2.3,4.42c0.27,1.15,0.4,3.43,0.4,6.84l19.82-16.47
					c4.35,3.45,7.19,6.31,8.53,8.57s2.11,5.14,2.33,8.63l18.56-17.2l10.86,10.16L563.7,53.77z"/>
				<path d="M573.16,60.08l13.98-10.23c3.6,2.48,5.99,4.78,7.16,6.91s1.77,5.05,1.77,8.77l17.23-15.67
					c5.81,4.21,9.7,7.81,11.65,10.82c1.24,1.95,1.86,4.85,1.86,8.7v37.19c-5.79,2.61-12.31,7.3-19.56,14.08
					c-2.64-1.68-6.37-3.63-11.19-5.84v4.71c0,5.53,0.55,9.5,1.66,11.89c1.11,2.39,3.1,4.49,5.98,6.31l-0.86,1.79
					c-4.87-1.73-8.52-3.39-10.93-4.98c-1.71-1.15-3.25-2.72-4.61-4.71c-3.19,2.83-6.2,4.76-9.03,5.78l-0.93-1.33
					c1.9-1.82,3.24-3.69,4.02-5.61c0.77-1.93,1.16-4.59,1.16-8v-9.7c-2.48-0.49-5.05-0.73-7.7-0.73c-0.22,0-0.58,0.02-1.06,0.07
					v-5.58c3.19-0.75,6.11-1.26,8.77-1.53V70.1c0-3.59-0.5-6.06-1.49-7.44c-0.99-1.37-2.01-2.06-3.05-2.06
					c-0.8,0-1.87,0.58-3.19,1.73L573.16,60.08z M596.07,68.91v34.33c5.18,1.06,8.71,1.87,10.59,2.42c1.88,0.55,4.08,1.41,6.61,2.56
					V70.96c0-2.04-0.08-3.24-0.23-3.62c-0.16-0.38-0.81-1.05-1.96-2.03c-2.57-2.21-4.57-3.81-5.99-4.78L596.07,68.91z"/>
				<path d="M667.49,25.48v1.73c-3.5,1.82-5.97,4.04-7.4,6.67c-1.44,2.63-2.16,6.63-2.16,11.99v59.03l7.57,5.64l2.92-2.39l1.66,2.39
					l-13.31,10.09c-4.02-3.5-7.03-5.82-9.01-6.97c-1.99-1.15-4.62-2.19-7.89-3.12v-1.46c1.24-0.75,2.2-1.7,2.89-2.86
					c0.69-1.15,1.16-2.5,1.43-4.05c0.09-0.53,0.15-3.19,0.2-7.97V46.8c0-4.03-0.16-6.83-0.46-8.4c-0.31-1.57-0.93-3.08-1.86-4.52
					c-0.93-1.44-2.5-3.04-4.71-4.81l1.06-1.33c4.04,1.15,7.66,3.5,10.86,7.04c3.31-3.5,6.31-5.89,8.98-7.17
					C660.91,26.32,664,25.61,667.49,25.48z"/>
				<path d="M707.16,49.85l18.73,21.85l-29.75,20.85v12.09l15.41,6.11l10.43-7.11l1.46,1.99l-21.48,15.01
					c-4.39-2.35-8-4.03-10.84-5.05c-2.84-1.02-6.87-2.08-12.1-3.19v-1.66c1.5-0.88,2.51-1.98,3.02-3.29
					c0.51-1.31,0.76-4.13,0.76-8.47V61.01c4.16-1.5,7.61-2.88,10.36-4.12C695.14,55.96,699.81,53.61,707.16,49.85z M697.07,57.49
					l-0.93,0.46V88.1l17.49-12.26L697.07,57.49z"/>
				<path d="M731.7,57.1l18.53-22.85h1.93l-0.66,18.33h13.35v7.44h-13.35v44.76l7.44,5.51l4.25-3.32l1.66,1.99l-14.64,11.69
					c-4.97-5.09-10.61-8.54-16.9-10.36v-1.33c1.77-1.2,2.94-2.44,3.52-3.72c0.75-1.64,1.13-4.01,1.13-7.12v-38.1h-6.24V57.1z"/>
				<path d="M785.69,49.85l11.79,9.79l-5.25,5.08v36.12c0,3.81,0.32,6.29,0.96,7.44c0.64,1.15,1.3,1.73,1.98,1.73
					c0.48,0,0.92-0.11,1.32-0.33c0.56-0.31,1.72-1.2,3.48-2.66l1.63,2.06l-14.24,11.55c-3.56-2.52-5.84-4.9-6.87-7.14
					c-1.02-2.24-1.53-6.14-1.53-11.72V64.73l-4.98-5.08L785.69,49.85z M790.7,27.14h8.43l-9.16,14.34h-2.66L790.7,27.14z"/>
				<path d="M860.79,59.55v49.67c-6.65,2.7-11.46,4.91-14.43,6.64c-2.26,1.28-4.43,2.88-6.52,4.78c-6.43-3.9-11.75-6.6-15.96-8.1
					c-3.19-1.15-6.8-1.81-10.84-1.99l-0.66-1.33c1.68-1.42,2.74-2.7,3.19-3.85c0.62-1.5,0.93-4.05,0.93-7.64V61.27
					c8.11-2.7,15.05-6.51,20.82-11.42C843.61,54.01,851.43,57.24,860.79,59.55z M829.91,102.78l17.33,7.11V67.71
					c-5.45-2.55-9.3-4.23-11.55-5.03c-1.59-0.58-3.52-1.07-5.78-1.48V102.78z"/>
				<path d="M916.5,49.85l9.06,9.96l6.47-6.24l1.89,1.79c-3.13,2.84-5.03,5-5.7,6.46c-0.89,1.96-1.34,4.64-1.34,8.07v31.66
					c0,2.93,0.47,5.11,1.4,6.53c0.58,0.93,1.22,1.4,1.93,1.4c0.62,0,2.09-0.86,4.4-2.59l1.63,2.06l-14.24,11.69
					c-3.69-2.77-6.06-5.22-7.1-7.35c-1.04-2.13-1.57-5.57-1.57-10.32V66.63l-5.87-6.2l-11.33,9.09v36.84l4.98,4.75l-11.72,9.53
					l-11.79-9.53l4.98-4.75V72.48c0-4.82-0.49-8.07-1.47-9.75c-0.67-1.15-1.42-1.72-2.27-1.72c-0.89,0-2.22,0.86-4,2.59l-1.63-2.06
					l14.11-11.69c3.91,2.91,6.35,5.21,7.33,6.9c0.98,1.69,1.47,4.04,1.47,7.04v2.39L916.5,49.85z"/>
			</g>
		</g>
		<g class="st1">
			<path class="st2" d="M34.71,26.93h41.32l-5.05,12.75H35.85L30.8,71l28.14-18.92c7.4,3.23,13,7.48,16.78,12.75
				c3.79,5.27,5.68,11.02,5.68,17.26c0,7.97-2.64,15.31-7.92,22.01c-5.28,6.71-14.24,11.22-26.88,13.54l-25.3-15.21l9.51-10.32
				l30.33,17.69c2.97-2.48,5.05-4.85,6.24-7.1c1.81-3.36,2.72-6.88,2.72-10.56c0-6.11-1.87-11.59-5.61-16.46
				c-3.74-4.87-9.71-8.72-17.9-11.55L26.67,77.41L34.71,26.93z"/>
			<path class="st2" d="M121.4,25.73c10.05,3.45,17.87,8.98,23.45,16.57c5.58,7.59,8.37,16.52,8.37,26.79
				c0,10.09-2.59,19.27-7.78,27.52c-5.19,8.26-12.21,15.26-21.08,21.02c-6.35-1.49-12.11-4.32-17.28-8.48
				c-5.17-4.16-9.12-9.34-11.85-15.54c-2.73-6.2-4.1-12.64-4.1-19.33c0-9.57,2.74-18.86,8.23-27.9
				C104.86,37.36,112.2,30.47,121.4,25.73z M109.92,37.95c-6.15,6.95-9.22,15.32-9.22,25.1c0,6.91,1.48,13.41,4.45,19.52
				c2.97,6.11,7.21,11.16,12.72,15.14c5.51,3.98,11.15,6.4,16.9,7.24c3.21-4.38,5.49-8.49,6.85-12.32
				c1.36-3.83,2.04-8.07,2.04-12.72c0-6.37-1.3-12.45-3.89-18.23s-6.48-10.67-11.66-14.68C122.94,43.01,116.87,39.99,109.92,37.95z"
				/>
		</g>
		<g class="st1">
			<path class="st2" d="M193.02,75.47c-6.02-1.9-10.76-5.02-14.21-9.36c-3.45-4.34-5.18-9.03-5.18-14.08
				c0-5.13,1.75-10.13,5.25-14.97s8.21-8.62,14.14-11.32c4.12,1.68,7.22,3.34,9.3,4.98c3.23,2.57,5.7,5.41,7.4,8.53
				s2.56,6.39,2.56,9.79c0,3.5-0.91,7.04-2.72,10.63s-4.23,6.77-7.24,9.56C200.24,71.13,197.14,73.21,193.02,75.47z M199.26,66.51
				c1.73-2.48,2.91-4.65,3.55-6.51s0.96-3.9,0.96-6.11c0-3.9-1.43-7.58-4.28-11.06c-2.86-3.47-7.12-6.12-12.78-7.94
				c-3.1,3.32-4.65,7.53-4.65,12.62c0,3.98,1.34,7.63,4.02,10.92C188.76,61.74,193.15,64.43,199.26,66.51z M197.71,122.16h-8.68
				l60.37-96.82h8.76L197.71,122.16z M256.44,117.64c-6.02-1.9-10.76-5.02-14.21-9.36c-3.45-4.34-5.18-9.03-5.18-14.08
				c0-5.13,1.75-10.13,5.25-14.97c3.5-4.85,8.21-8.62,14.14-11.32c4.07,1.68,7.17,3.34,9.3,4.98c3.23,2.52,5.7,5.36,7.4,8.5
				c1.7,3.14,2.56,6.42,2.56,9.83c0,3.5-0.91,7.03-2.72,10.59c-1.82,3.56-4.23,6.76-7.24,9.6
				C263.66,113.3,260.56,115.38,256.44,117.64z M262.68,108.67c1.73-2.48,2.91-4.65,3.55-6.51s0.96-3.9,0.96-6.11
				c0-3.9-1.43-7.58-4.28-11.06c-2.86-3.47-7.12-6.12-12.78-7.94c-3.1,3.32-4.65,7.53-4.65,12.62c0,3.98,1.33,7.63,3.98,10.92
				C252.12,103.91,256.53,106.59,262.68,108.67z"/>
		</g>
		<g class="st1">
			<path class="st2" d="M343.92,26.66l1.63,1.86c-6.6,4.47-11.51,9.25-14.74,14.34c-4.16,6.55-6.24,13.68-6.24,21.38
				c0,9.34,3.08,17.97,9.23,25.9c2.66-2.17,4.25-4,4.78-5.48c0.53-1.48,0.8-5.54,0.8-12.19V42.73l28.46-23.71
				c6.63,2.61,11.84,4.31,15.64,5.08c3.8,0.78,8.26,1.16,13.38,1.16h1.52l1.1,2.42l-10.96,10.46c-7.35-0.8-15.66-3.5-24.9-8.1
				l0.66,75.84l2.52,0.07c6.36,0,12.15-1.09,17.38-3.27c5.23-2.18,10.65-5.72,16.26-10.61l2.03,1.96
				c-4.12,5.68-8.16,10.09-12.12,13.23c-3.96,3.15-8.73,5.66-14.31,7.55c-5.58,1.88-11.11,2.83-16.6,2.83
				c-8.15,0-15.82-1.97-23.01-5.91c-7.19-3.94-12.83-9.58-16.9-16.93c-4.07-7.35-6.11-14.92-6.11-22.71c0-9.61,2.87-18.5,8.62-26.7
				C326.54,38.97,333.83,32.73,343.92,26.66z M360.55,29.58l-7.77,6.73v30.31c0,3.77-0.2,6.27-0.6,7.51
				c-0.44,1.64-1.47,3.39-3.06,5.25c-3.24,3.77-7.77,8.07-13.59,12.9c3.55,3.94,7.35,6.96,11.41,9.05c4.06,2.1,8.82,3.5,14.27,4.21
				L360.55,29.58z"/>
			<path class="st2" d="M458.8,56.55v49.67c-6.65,2.7-11.46,4.91-14.43,6.64c-2.26,1.28-4.43,2.88-6.52,4.78
				c-6.43-3.9-11.75-6.6-15.96-8.1c-3.19-1.15-6.8-1.81-10.84-1.99l-0.66-1.33c1.68-1.42,2.74-2.7,3.19-3.85
				c0.62-1.5,0.93-4.05,0.93-7.64V58.27c8.11-2.7,15.05-6.51,20.82-11.42C441.62,51.01,449.44,54.24,458.8,56.55z M427.92,99.78
				l17.33,7.11V64.71c-5.45-2.55-9.3-4.23-11.55-5.03c-1.59-0.58-3.52-1.07-5.78-1.48V99.78z"/>
			<path class="st2" d="M560.7,50.77l1.93,1.79c-2.55,2.21-4.26,3.98-5.13,5.31c-0.87,1.33-1.44,2.65-1.71,3.98
				c-0.27,1.33-0.4,4.05-0.4,8.16V97.6c0,3.63,0.36,6.04,1.08,7.23c0.72,1.19,1.39,1.79,2.03,1.79c0.89,0,2.43-0.91,4.63-2.72
				l1.63,2.06l-14.38,11.69c-3.29-2.56-5.42-4.69-6.4-6.37c-1.42-2.48-2.13-5.11-2.13-7.89v-40l-6.65-5.77l-10.55,9.86v35.9
				l4.98,5.35l-11.59,8.93l-11.79-8.93l4.85-5.35V70.37c0-3.85-0.29-6.33-0.86-7.44c-0.8-1.5-2.72-3.3-5.77-5.38l-10.51,8.82v36.99
				l5.11,5.35l-11.65,8.93l-11.92-8.93l5.18-5.35V67.84c0-3.67-0.46-6.33-1.38-7.97c-0.72-1.24-1.38-1.86-1.98-1.86
				c-0.72,0-2.18,0.86-4.38,2.59l-1.63-2.06l13.78-11.69c3.02,2.13,5.08,3.86,6.17,5.21c1.09,1.35,1.85,2.82,2.3,4.42
				c0.27,1.15,0.4,3.43,0.4,6.84l19.82-16.47c4.35,3.45,7.19,6.31,8.53,8.57s2.11,5.14,2.33,8.63l18.56-17.2l10.86,10.16
				L560.7,50.77z"/>
			<path class="st2" d="M570.16,57.08l13.98-10.23c3.6,2.48,5.99,4.78,7.16,6.91s1.77,5.05,1.77,8.77l17.23-15.67
				c5.81,4.21,9.7,7.81,11.65,10.82c1.24,1.95,1.86,4.85,1.86,8.7v37.19c-5.79,2.61-12.31,7.3-19.56,14.08
				c-2.64-1.68-6.37-3.63-11.19-5.84v4.71c0,5.53,0.55,9.5,1.66,11.89c1.11,2.39,3.1,4.49,5.98,6.31l-0.86,1.79
				c-4.87-1.73-8.52-3.39-10.93-4.98c-1.71-1.15-3.25-2.72-4.61-4.71c-3.19,2.83-6.2,4.76-9.03,5.78l-0.93-1.33
				c1.9-1.82,3.24-3.69,4.02-5.61c0.77-1.93,1.16-4.59,1.16-8v-9.7c-2.48-0.49-5.05-0.73-7.7-0.73c-0.22,0-0.58,0.02-1.06,0.07
				v-5.58c3.19-0.75,6.11-1.26,8.77-1.53V67.1c0-3.59-0.5-6.06-1.49-7.44c-0.99-1.37-2.01-2.06-3.05-2.06
				c-0.8,0-1.87,0.58-3.19,1.73L570.16,57.08z M593.07,65.91v34.33c5.18,1.06,8.71,1.87,10.59,2.42c1.88,0.55,4.08,1.41,6.61,2.56
				V67.96c0-2.04-0.08-3.24-0.23-3.62c-0.16-0.38-0.81-1.05-1.96-2.03c-2.57-2.21-4.57-3.81-5.99-4.78L593.07,65.91z"/>
			<path class="st2" d="M664.49,22.48v1.73c-3.5,1.82-5.97,4.04-7.4,6.67c-1.44,2.63-2.16,6.63-2.16,11.99v59.03l7.57,5.64
				l2.92-2.39l1.66,2.39l-13.31,10.09c-4.02-3.5-7.03-5.82-9.01-6.97c-1.99-1.15-4.62-2.19-7.89-3.12v-1.46
				c1.24-0.75,2.2-1.7,2.89-2.86c0.69-1.15,1.16-2.5,1.43-4.05c0.09-0.53,0.15-3.19,0.2-7.97V43.8c0-4.03-0.16-6.83-0.46-8.4
				c-0.31-1.57-0.93-3.08-1.86-4.52c-0.93-1.44-2.5-3.04-4.71-4.81l1.06-1.33c4.04,1.15,7.66,3.5,10.86,7.04
				c3.31-3.5,6.31-5.89,8.98-7.17C657.91,23.32,661,22.61,664.49,22.48z"/>
			<path class="st2" d="M704.16,46.85l18.73,21.85l-29.75,20.85v12.09l15.41,6.11l10.43-7.11l1.46,1.99l-21.48,15.01
				c-4.39-2.35-8-4.03-10.84-5.05c-2.84-1.02-6.87-2.08-12.1-3.19v-1.66c1.5-0.88,2.51-1.98,3.02-3.29
				c0.51-1.31,0.76-4.13,0.76-8.47V58.01c4.16-1.5,7.61-2.88,10.36-4.12C692.14,52.96,696.81,50.61,704.16,46.85z M694.07,54.49
				l-0.93,0.46V85.1l17.49-12.26L694.07,54.49z"/>
			<path class="st2" d="M728.7,54.1l18.53-22.85h1.93l-0.66,18.33h13.35v7.44h-13.35v44.76l7.44,5.51l4.25-3.32l1.66,1.99
				l-14.64,11.69c-4.97-5.09-10.61-8.54-16.9-10.36v-1.33c1.77-1.2,2.94-2.44,3.52-3.72c0.75-1.64,1.13-4.01,1.13-7.12v-38.1h-6.24
				V54.1z"/>
			<path class="st2" d="M782.69,46.85l11.79,9.79l-5.25,5.08v36.12c0,3.81,0.32,6.29,0.96,7.44c0.64,1.15,1.3,1.73,1.98,1.73
				c0.48,0,0.92-0.11,1.32-0.33c0.56-0.31,1.72-1.2,3.48-2.66l1.63,2.06l-14.24,11.55c-3.56-2.52-5.84-4.9-6.87-7.14
				c-1.02-2.24-1.53-6.14-1.53-11.72V61.73l-4.98-5.08L782.69,46.85z M787.7,24.14h8.43l-9.16,14.34h-2.66L787.7,24.14z"/>
			<path class="st2" d="M857.79,56.55v49.67c-6.65,2.7-11.46,4.91-14.43,6.64c-2.26,1.28-4.43,2.88-6.52,4.78
				c-6.43-3.9-11.75-6.6-15.96-8.1c-3.19-1.15-6.8-1.81-10.84-1.99l-0.66-1.33c1.68-1.42,2.74-2.7,3.19-3.85
				c0.62-1.5,0.93-4.05,0.93-7.64V58.27c8.11-2.7,15.05-6.51,20.82-11.42C840.61,51.01,848.43,54.24,857.79,56.55z M826.91,99.78
				l17.33,7.11V64.71c-5.45-2.55-9.3-4.23-11.55-5.03c-1.59-0.58-3.52-1.07-5.78-1.48V99.78z"/>
			<path class="st2" d="M913.5,46.85l9.06,9.96l6.47-6.24l1.89,1.79c-3.13,2.84-5.03,5-5.7,6.46c-0.89,1.96-1.34,4.64-1.34,8.07
				v31.66c0,2.93,0.47,5.11,1.4,6.53c0.58,0.93,1.22,1.4,1.93,1.4c0.62,0,2.09-0.86,4.4-2.59l1.63,2.06l-14.24,11.69
				c-3.69-2.77-6.06-5.22-7.1-7.35c-1.04-2.13-1.57-5.57-1.57-10.32V63.63l-5.87-6.2l-11.33,9.09v36.84l4.98,4.75l-11.72,9.53
				l-11.79-9.53l4.98-4.75V69.48c0-4.82-0.49-8.07-1.47-9.75c-0.67-1.15-1.42-1.72-2.27-1.72c-0.89,0-2.22,0.86-4,2.59l-1.63-2.06
				l14.11-11.69c3.91,2.91,6.35,5.21,7.33,6.9c0.98,1.69,1.47,4.04,1.47,7.04v2.39L913.5,46.85z"/>
		</g>
	</g>
</g>
</svg>
