<svg xmlns="http://www.w3.org/2000/svg" viewBox="0 0 966.1 181.77"><defs><style>.cls-1{isolation:isolate;}.cls-2{opacity:0.45;mix-blend-mode:multiply;}.cls-3{fill:#010101;}.cls-4{fill:#304982;}</style></defs><g class="cls-1"><g id="Layer_1" data-name="Layer 1"><g class="cls-2"><path class="cls-3" d="M60.78,171.41l1.72.54c-3.18,5.09-5,9.78-5.62,14a24.21,24.21,0,0,0,2.66,15.16c3,5.63,7.9,9.7,14.52,12.33,1.07-2.25,1.56-3.91,1.44-5s-1.23-3.63-3.34-7.66l-9.44-18q6-12.3,12.44-24.54A97.36,97.36,0,0,0,87.7,156a65.23,65.23,0,0,0,9.8-3.78l1.08-.51,1.47,1.14q-2.35,5.05-4.65,10.11c-5.38,2-12,3.11-19.84,3.53q11.84,23.07,23.66,46.15l1.68-.79a37.1,37.1,0,0,0,10.6-7.67,48.39,48.39,0,0,0,7.82-11.74l1.94.58A50.43,50.43,0,0,1,117,205a37,37,0,0,1-7.27,9.23,42.22,42.22,0,0,1-10.08,7.16,38.45,38.45,0,0,1-16.94,4.19,31.31,31.31,0,0,1-16.56-4.26,29.84,29.84,0,0,1-11.51-11.41,28.41,28.41,0,0,1-2.92-19.21C52.68,185.2,55.68,178.74,60.78,171.41Zm12.51-4.16c-1.12,2.28-2.23,4.57-3.33,6.85l9.44,18.46a18.61,18.61,0,0,1,1.93,4.78,9.53,9.53,0,0,1-.43,4.26,92.28,92.28,0,0,1-5,12.55,31.11,31.11,0,0,0,10.43,1.54,35.34,35.34,0,0,0,10.76-2.26Q85.2,190.34,73.29,167.25Z" transform="translate(-48.17 -50.44)"/><path class="cls-3" d="M132.69,152.54q9.56,4,18.94,8.2-7.63,10.89-14.91,21.9l3.34,7.56q6-.39,12.08-.7,2.56-3.74,5.19-7.47l1.51.85q-5.33,7.78-10.47,15.62a60.42,60.42,0,0,0-8.66.05,70.19,70.19,0,0,0-9,1.67l-.47-1a4.77,4.77,0,0,0,1.1-3,18.65,18.65,0,0,0-1.88-5.5l-10.73-23.66c2.47-2.25,4.49-4.18,6.07-5.81C125.92,160.05,128.53,157.14,132.69,152.54Zm-5,7.87c-.17.2-.35.39-.52.58q4.15,9.44,8.32,18.86,4.29-6.47,8.72-12.91Q136,163.61,127.69,160.41Z" transform="translate(-48.17 -50.44)"/><path class="cls-3" d="M176.68,134.77q5.06,2.5,10,5.06-2.52,4.17-5,8.37-4.25-2.3-8.51-4.54-1.6,2.81-3.18,5.61l9.6,24.63c2.18.48,4.35,1,6.53,1.47q1.68-2.61,3.38-5.22l1.56,1q-4.22,6.55-8.29,13.15a40.42,40.42,0,0,0-7.94-2,24.85,24.85,0,0,0-6.32.09l-.38-.92a7.52,7.52,0,0,0,1.54-3.69,15.09,15.09,0,0,0-1.42-5.32l-6.91-17.19c-.86-2.17-1.71-3.5-2.53-4a2.41,2.41,0,0,0-2.2-.36q-1,.42-2.19,2.85l-1.64-.75q3.3-5.8,6.71-11.58a23.94,23.94,0,0,1,7.37,2.62,6.14,6.14,0,0,1,2.31,3.14Q172.91,141,176.68,134.77Z" transform="translate(-48.17 -50.44)"/><path class="cls-3" d="M189.14,135.44q3.95-9.75,8.12-19.47l1.4-.49q1.8,6,3.62,12,4.8-1.67,9.61-3.28c.54,1.61,1.07,3.22,1.61,4.83q-4.78,1.61-9.55,3.26l10,28.91c2.13.6,4.26,1.19,6.38,1.8l2.21-3.15,1.59.91q-3.81,5.49-7.51,11a27.31,27.31,0,0,0-14-2.56l-.31-.85a6.71,6.71,0,0,0,1.56-3.27,11.25,11.25,0,0,0-.86-4.86l-8.79-24.53-4.44,1.6Z" transform="translate(-48.17 -50.44)"/><path class="cls-3" d="M225.39,117.83c3.53,1.22,7,2.46,10.53,3.72q-1.38,2.24-2.74,4.49,3.69,11.79,7.39,23.57,1.17,3.72,2.19,4.64c.68.61,1.26.85,1.73.7a2.06,2.06,0,0,0,.86-.5,27.11,27.11,0,0,0,1.89-2.49l1.54,1q-3.81,5.29-7.52,10.63c-3-.87-5.06-1.9-6.24-3.13s-2.36-3.65-3.54-7.28l-7.83-24.1c-1.55-.71-3.1-1.43-4.65-2.13C221.11,123.9,223.24,120.87,225.39,117.83Zm-1-16,6.21-1.94q-1.94,5.73-3.8,11.46l-1.94.62Q224.59,106.94,224.36,101.87Z" transform="translate(-48.17 -50.44)"/><path class="cls-3" d="M263.29,91.53c.14,2.56.29,5.13.44,7.69q-4.74.32-9.49.67,1.5,5.27,3,10.53,3.75-1.07,7.51-2.1l1.35,4.9c-2.49.69-5,1.38-7.47,2.09q4.17,14.66,8.32,29.31l6.31,2.24,2.88-3.76,1.41.93q-4.32,5.58-8.51,11.19A31.87,31.87,0,0,0,255.37,152c-.19-.32-.39-.64-.59-1a6.83,6.83,0,0,0,1.7-2.78,8.21,8.21,0,0,0-.15-4.64q-3.76-12.75-7.52-25.48l-4.51,1.34c-.48-1.62-1-3.25-1.46-4.87,1.51-.46,3-.91,4.54-1.35q-1.56-5.25-3.1-10.5a118,118,0,0,0,9-10.72C256.61,91.86,260,91.68,263.29,91.53Z" transform="translate(-48.17 -50.44)"/><path class="cls-3" d="M281.09,101.8c3.43,1.43,6.86,2.87,10.26,4.32q-1.5,2.16-3,4.33l6,24q1,3.79,1.92,4.77c.64.65,1.2.91,1.68.79a2,2,0,0,0,.88-.45,23.65,23.65,0,0,0,2-2.37l1.48,1.09q-4.1,5.06-8.09,10.16-4.37-1.54-6-3.48t-3.11-7.47q-3.21-12.25-6.43-24.51l-4.5-2.41Q277.61,106.16,281.09,101.8Zm-.13-16,6.29-1.57c-1.5,3.74-3,7.47-4.43,11.22l-2,.49Q280.9,90.88,281,85.81Z" transform="translate(-48.17 -50.44)"/><path class="cls-3" d="M315.75,93.55q7.08,1.89,14.1,3.89c-1.26,2.67-2.5,5.33-3.73,8q-5.26-1.51-10.58-3,3.13,14.14,6.28,28.28,5.07.93,10.12,1.89c1.4-1.46,2.81-2.93,4.23-4.39.3.6.6,1.2.89,1.8q-5,5.25-9.9,10.55a55.3,55.3,0,0,0-8.44-1.82,50.52,50.52,0,0,0-8.27-.17c-.08-.35-.16-.7-.25-1.06a5.57,5.57,0,0,0,1.63-2.8,14.83,14.83,0,0,0-.51-5.57L305.47,104A47.21,47.21,0,0,0,315.75,93.55Z" transform="translate(-48.17 -50.44)"/><path class="cls-3" d="M368.84,85.36l1.87.34A27.37,27.37,0,0,0,368.29,92a16.76,16.76,0,0,0,.19,5.51l3.18,19.09q.79,4.74,1.7,5.81a2.05,2.05,0,0,0,1.91.91,2.67,2.67,0,0,0,1-.43c.21-.18.8-.81,1.79-1.87l1.39,1.2q-4.39,4.93-8.69,9.9a18.3,18.3,0,0,1-5.7-4,13.24,13.24,0,0,1-2.43-5.69q-6.26,6.64-12.34,13.37c-6.16-3.13-9.7-6.68-10.52-10.72a17.2,17.2,0,0,1,.24-8,49.44,49.44,0,0,1,6-12.53q-4-5.18-8.08-10.33c.15-.43.31-.85.46-1.28,1.29-.16,2.24-.3,2.86-.42a15,15,0,0,0,9.43-6.07,39.5,39.5,0,0,0,8.38,1.65,28.58,28.58,0,0,0,6.7,0,3.13,3.13,0,0,0,1.52-.59A10.38,10.38,0,0,0,368.84,85.36ZM358,96q-8.78-.87-17.6-1.58,4.11,5.16,8.13,10.36,5.78,1.31,11.5,2.67Q359,101.69,358,96Zm2.36,13.32q-6.29-1.5-12.61-2.93a22.22,22.22,0,0,0-.87,10.07c.93,4.83,4,8.34,9.25,10.61q3.06-3.37,6.18-6.74Z" transform="translate(-48.17 -50.44)"/><path class="cls-3" d="M378,86.93q5.67-8.79,11.57-17.51l1.45-.2q.61,6.24,1.24,12.48c3.32-.46,6.63-.91,9.95-1.34l.66,5Q398,86,393,86.74q2.12,15.15,4.25,30.31,2.92,1.49,5.84,3l2.75-2.66,1.37,1.2q-4.74,4.65-9.38,9.34a27.08,27.08,0,0,0-13.08-5.24l-.14-.89a6.63,6.63,0,0,0,2.14-2.91,11.55,11.55,0,0,0,.09-4.93Q384.91,101.08,383,88.2l-4.62.7C378.24,88.25,378.14,87.59,378,86.93Z" transform="translate(-48.17 -50.44)"/><path class="cls-3" d="M428.73,75.4q7.78,6.7,15.36,13.54Q433.73,97,423.71,105.3c.3,2.74.61,5.48.91,8.22q5.79,1.45,11.52,3,3.51-2.81,7.05-5.56l1.18,1.26Q437.08,118,430,123.94a59.1,59.1,0,0,0-8.12-2.57,68.48,68.48,0,0,0-8.92-1.13c0-.37-.09-.75-.14-1.12a4.73,4.73,0,0,0,1.9-2.5,18.65,18.65,0,0,0-.15-5.82Q413,97.92,411.41,85q4.44-2.1,7.37-3.7C420.2,80.52,423.49,78.53,428.73,75.4Zm-7,6-.66.39,2.28,20.49q5.91-4.87,11.94-9.68Q428.6,87,421.75,81.4Z" transform="translate(-48.17 -50.44)"/><path class="cls-3" d="M509.9,77l.75,34a83,83,0,0,0-10.27,4.82,25.21,25.21,0,0,0-4.56,3.43,63.53,63.53,0,0,0-11.69-5,26.81,26.81,0,0,0-7.87-.94l-.53-.88a7.5,7.5,0,0,0,2.15-2.76,14.29,14.29,0,0,0,.38-5.25q-.69-12.45-1.37-24.9a50.09,50.09,0,0,0,15.21-8.54A62.87,62.87,0,0,0,509.9,77Zm-21.73,30.3q6.39,2.14,12.72,4.38L500,82.84c-4.1-1.62-7-2.65-8.72-3.13a26.43,26.43,0,0,0-4.35-.82Q487.54,93.08,488.17,107.28Z" transform="translate(-48.17 -50.44)"/><path class="cls-3" d="M543.37,55.68q-.84,3.76-1.66,7.52-4.61-1-9.23-2,0,5.48,0,10.94l7.73,0c0,1.69,0,3.39,0,5.08-2.56,0-5.13,0-7.69,0q0,15.24,0,30.47l5.41,3.88,3.76-2.83,1.09,1.28q-5.62,4.19-11.15,8.43a31.52,31.52,0,0,0-12.14-6.82l-.3-1.08a6.92,6.92,0,0,0,2.37-2.21,8.32,8.32,0,0,0,1.11-4.51q-.12-13.27-.25-26.56l-4.67,0-.07-5.08c1.56,0,3.12,0,4.69-.06,0-3.65-.07-7.29-.11-10.94a118,118,0,0,0,11.48-7.86Q538.54,54.54,543.37,55.68Z" transform="translate(-48.17 -50.44)"/><path class="cls-3" d="M600.51,58.6,601.66,60Q593.83,64,589.89,69a24.76,24.76,0,0,0-5.47,14.34c-.34,6.38,1.63,12.39,5.8,18.07,2-1.37,3.27-2.54,3.72-3.53s.82-3.75,1.11-8.28q.65-10.15,1.3-20.3,11.22-7.41,22.79-14.56a90.73,90.73,0,0,0,11.61,4.54,61.18,61.18,0,0,0,10.09,1.83l1.16.13.66,1.73q-4.54,3.1-9,6.25c-5.49-1.1-11.57-3.52-18.33-7.24q-1.86,25.87-3.76,51.73l1.81.19a35.37,35.37,0,0,0,12.73-1.08,47.11,47.11,0,0,0,12.5-6l1.32,1.49a49.31,49.31,0,0,1-9.7,8.07,35.9,35.9,0,0,1-10.75,4.14,40.25,40.25,0,0,1-12,.92,36.51,36.51,0,0,1-16.2-5.19,31.88,31.88,0,0,1-15.32-28,28.86,28.86,0,0,1,7.29-17.92C586.81,66.2,592.56,62.22,600.51,58.6ZM613,61.52q-3.13,2.05-6.24,4.14l-1.53,20.67a18.82,18.82,0,0,1-.82,5.09,9.6,9.6,0,0,1-2.51,3.42A91.27,91.27,0,0,1,591.4,103a30.28,30.28,0,0,0,7.87,6.72,33.32,33.32,0,0,0,10.09,3.64Q611.19,87.43,613,61.52Z" transform="translate(-48.17 -50.44)"/><path class="cls-3" d="M683.55,88.26Q681,105,678.4,121.84a84.47,84.47,0,0,0-11,3,25.19,25.19,0,0,0-5.09,2.59,63.88,63.88,0,0,0-10.66-7,26.59,26.59,0,0,0-7.6-2.29l-.38-1a7.27,7.27,0,0,0,2.6-2.35,14.24,14.24,0,0,0,1.29-5.1q1.49-12.37,3-24.76A50.13,50.13,0,0,0,667,79.18,62.87,62.87,0,0,0,683.55,88.26Zm-26.7,26.09q5.94,3.21,11.79,6.5l4.08-28.54c-3.77-2.3-6.47-3.82-8.07-4.59a27.62,27.62,0,0,0-4.15-1.57Q658.69,100.25,656.85,114.35Z" transform="translate(-48.17 -50.44)"/><path class="cls-3" d="M758.5,98.62l1.14,1.52a20.81,20.81,0,0,0-4.58,2.67,7.3,7.3,0,0,0-1.85,2.37,31.53,31.53,0,0,0-1.53,5.37q-2.08,9.2-4.18,18.4-.82,3.63-.33,5c.33.92.72,1.42,1.17,1.53.62.14,1.85-.21,3.69-1.06.28.55.56,1.09.83,1.64-4,1.8-8,3.62-11.91,5.47a19,19,0,0,1-3.58-5.24,10.35,10.35,0,0,1-.36-5.61q2.9-13.36,5.78-26.73c-1.34-1.64-2.69-3.27-4-4.91q-4.57,2.49-9.09,5-2.45,12-4.88,24.06,1.41,2.15,2.8,4.31c-3.15,1.42-6.29,2.87-9.41,4.32q-3.55-3.81-7.18-7.6l4.13-2.94L719.38,104c.5-2.59.61-4.29.33-5.12q-.59-1.68-3.55-4.41-4.42,2.23-8.81,4.51-2.24,12.45-4.46,24.9l3,4.26q-4.7,2.25-9.35,4.54-3.69-3.75-7.45-7.46l4.3-3,4.05-24a10.86,10.86,0,0,0-.11-5.55c-.39-.92-.81-1.42-1.25-1.5s-1.71.32-3.52,1.22c-.32-.53-.65-1.06-1-1.59q5.73-3.12,11.53-6.17a22.87,22.87,0,0,1,4,4.31,8.17,8.17,0,0,1,1.17,3.27,23.94,23.94,0,0,1-.53,4.66q8.26-4.25,16.7-8.34c2.77,2.94,4.48,5.28,5.16,7a12.23,12.23,0,0,1,.54,6.13q8-4.38,16.07-8.64,3.27,4.27,6.48,8.55Z" transform="translate(-48.17 -50.44)"/><path class="cls-3" d="M763.45,104.21q5.92-2.19,11.9-4.3c2.24,2.3,3.6,4.27,4.1,5.9a11.44,11.44,0,0,1-.19,6.13q7.57-3.59,15.28-7.06c3.51,3.92,5.67,7.09,6.53,9.47a10.27,10.27,0,0,1-.25,6.1L794,144.94c-4.55.58-10,2.41-16.23,5.55a65.09,65.09,0,0,0-6.82-5.9c-.26,1-.53,2.08-.8,3.12q-1.4,5.5-.86,8.17a10.73,10.73,0,0,0,3,5.25c-.3.34-.61.68-.91,1a40.49,40.49,0,0,1-6.7-5.24,12.37,12.37,0,0,1-2.41-3.93,21,21,0,0,1-7.21,2.3c-.14-.34-.29-.69-.43-1a11.39,11.39,0,0,0,3.7-3.05,14.61,14.61,0,0,0,2.11-5.12c.52-2.14,1-4.29,1.58-6.43a28.7,28.7,0,0,0-5.32-1.8c-.16,0-.41-.09-.76-.14.29-1.24.59-2.47.88-3.71a51.22,51.22,0,0,1,6.46.48q2.7-11,5.38-22c.59-2.38.63-4.12.13-5.2a3.06,3.06,0,0,0-1.9-1.91,4.35,4.35,0,0,0-2.61.58C764,105.4,763.73,104.8,763.45,104.21Zm15.23,10-5.82,22.74c3.49,1.64,5.83,2.83,7.06,3.55a37.48,37.48,0,0,1,4.21,2.93l6.63-24.6a9.85,9.85,0,0,0,.48-2.44,6.07,6.07,0,0,0-1.06-1.72,52.81,52.81,0,0,0-3.51-4.31C784,111.61,781.33,112.89,778.68,114.19Z" transform="translate(-48.17 -50.44)"/><path class="cls-3" d="M838,100.19c-.11.37-.23.75-.35,1.12a12.47,12.47,0,0,0-6.8,2.68c-1.58,1.39-2.9,3.85-4,7.35Q821,130.64,815.12,150c1.39,1.77,2.77,3.55,4.15,5.32l2.52-.92.66,1.92q-5.66,1.83-11.27,3.73a46.56,46.56,0,0,0-4.89-6.44,25.77,25.77,0,0,0-4.9-3.67l.28-1a6,6,0,0,0,2.57-1.28,7.76,7.76,0,0,0,1.78-2.36c.16-.34.72-2.06,1.67-5.19L816.84,109a30.75,30.75,0,0,0,1.27-5.61,8.12,8.12,0,0,0-.5-3.36,15.73,15.73,0,0,0-2.56-4.18l1-.64a17.81,17.81,0,0,1,6.65,7,24.21,24.21,0,0,1,8-2.7A19.39,19.39,0,0,1,838,100.19Z" transform="translate(-48.17 -50.44)"/><path class="cls-3" d="M860.75,125.2q4.31,9.39,8.39,18.81-12.93,2.91-25.63,6.17-1.32,3.91-2.63,7.83,4.68,3.78,9.31,7.61c2.93-.7,5.88-1.37,8.83-2,.18.55.36,1.1.55,1.64q-9.17,2.17-18.18,4.52A59.69,59.69,0,0,0,835,164a69.55,69.55,0,0,0-7.7-4.81l.35-1.08a4.7,4.7,0,0,0,2.79-1.46q.94-1.1,2.32-5.33,4-12.36,8-24.71c3.3,0,6.08-.08,8.32-.23C850.75,126.22,854.62,125.81,860.75,125.2Zm-8.94,2.47-.77.08-6.57,19.55q7.49-1.92,15.06-3.7Q855.75,135.62,851.81,127.67Z" transform="translate(-48.17 -50.44)"/><path class="cls-3" d="M875.7,135.77q9.28-4.94,18.75-9.69l1.39.53-5,11.53q4.75,1.81,9.5,3.68l-1.86,4.73q-4.72-1.86-9.45-3.66l-10.92,28.59c1.26,1.83,2.51,3.65,3.75,5.48l3.73-1c.21.57.42,1.14.64,1.72q-6.46,1.74-12.87,3.59a27.45,27.45,0,0,0-9.07-10.95c.1-.29.21-.57.31-.86A6.68,6.68,0,0,0,868,168a11.31,11.31,0,0,0,2.47-4.27q4.51-12.22,9-24.44L875,137.64C875.25,137,875.48,136.39,875.7,135.77Z" transform="translate(-48.17 -50.44)"/><path class="cls-3" d="M914.91,145.65q2.91,4.82,5.74,9.64l-5,1.67-9.49,22.8c-1,2.41-1.44,4.06-1.31,5s.43,1.46.89,1.65a2.1,2.1,0,0,0,1,.17,26,26,0,0,0,3.07-.68c.18.59.37,1.18.55,1.76q-6.36,1.59-12.67,3.26c-1.74-2.58-2.68-4.72-2.8-6.42s.53-4.31,2-7.85l9.51-23.49c-.73-1.54-1.47-3.09-2.21-4.63Q909.5,147,914.91,145.65Zm9.51-12.88,6.05,2.54q-5.19,3.13-10.33,6.31l-1.89-.78C920.3,138.14,922.35,135.46,924.42,132.77Z" transform="translate(-48.17 -50.44)"/><path class="cls-3" d="M963.82,174.62l-14.64,30.65a85.36,85.36,0,0,0-11.57-.43,25.26,25.26,0,0,0-5.71,1,65.6,65.6,0,0,0-8.39-9.86,27.93,27.93,0,0,0-6.76-4.46c0-.34,0-.68-.08-1a7.39,7.39,0,0,0,3.2-1.48,14.14,14.14,0,0,0,2.72-4.51l10-22.85a51.66,51.66,0,0,0,17.73-.63A65.3,65.3,0,0,0,963.82,174.62Zm-33.53,17q4.86,4.84,9.64,9.75,6.08-13.08,12.16-26.15-4.53-5-6.55-6.8a28.85,28.85,0,0,0-3.6-2.74Q936.12,178.7,930.29,191.66Z" transform="translate(-48.17 -50.44)"/><path class="cls-3" d="M1004.18,187.53q1.5,4.65,3,9.31c2.14-.47,4.28-.92,6.43-1.37l.69,1.77q-4.57.82-6,1.79a12.08,12.08,0,0,0-3.53,4.36l-10.29,19a7.77,7.77,0,0,0-1.21,4.43,1.83,1.83,0,0,0,.81,1.53c.41.22,1.65.22,3.73,0,.13.61.26,1.22.38,1.82q-6.57.94-13.09,2c-1.5-3-2.27-5.25-2.27-6.9s.75-3.92,2.26-6.79l11.59-22q-1-2.92-2-5.85-5.29.75-10.56,1.55l-11.45,22.44c.61,1.53,1.21,3,1.81,4.58q-5.36.9-10.67,1.88-2.4-4.86-4.87-9.71l4.74-1.28L974,189.41q2.21-4.42,2-6.47a2.14,2.14,0,0,0-1-1.83c-.61-.3-1.79-.22-3.53.24-.16-.6-.33-1.21-.5-1.81q6.61-1.22,13.27-2.35c1.81,3.13,2.77,5.39,2.91,6.76a8.67,8.67,0,0,1-1.18,4.8c-.25.49-.49,1-.74,1.46Q994.6,188.77,1004.18,187.53Z" transform="translate(-48.17 -50.44)"/></g><path class="cls-4" d="M57.78,168.41l1.72.54c-3.18,5.09-5,9.78-5.62,14a24.21,24.21,0,0,0,2.66,15.16c3,5.63,7.9,9.7,14.52,12.33,1.07-2.25,1.56-3.91,1.44-5s-1.23-3.63-3.34-7.66l-9.44-18q6-12.3,12.44-24.54A97.36,97.36,0,0,0,84.7,153a65.23,65.23,0,0,0,9.8-3.78l1.08-.51,1.47,1.14q-2.35,5.05-4.65,10.11c-5.38,2-12,3.11-19.84,3.53q11.84,23.07,23.66,46.15l1.68-.79a37.1,37.1,0,0,0,10.6-7.67,48.39,48.39,0,0,0,7.82-11.74l1.94.58A50.43,50.43,0,0,1,114,202a37,37,0,0,1-7.27,9.23,42.22,42.22,0,0,1-10.08,7.16,38.45,38.45,0,0,1-16.94,4.19,31.31,31.31,0,0,1-16.56-4.26,29.84,29.84,0,0,1-11.51-11.41,28.41,28.41,0,0,1-2.92-19.21C49.68,182.2,52.68,175.74,57.78,168.41Zm12.51-4.16c-1.12,2.28-2.23,4.57-3.33,6.85l9.44,18.46a18.61,18.61,0,0,1,1.93,4.78,9.53,9.53,0,0,1-.43,4.26,92.28,92.28,0,0,1-5,12.55,31.11,31.11,0,0,0,10.43,1.54,35.34,35.34,0,0,0,10.76-2.26Q82.2,187.34,70.29,164.25Z" transform="translate(-48.17 -50.44)"/><path class="cls-4" d="M129.69,149.54q9.56,4,18.94,8.2-7.63,10.89-14.91,21.9l3.34,7.56q6-.39,12.08-.7,2.56-3.74,5.19-7.47l1.51.85q-5.33,7.78-10.47,15.62a60.42,60.42,0,0,0-8.66.05,70.19,70.19,0,0,0-9,1.67l-.47-1a4.77,4.77,0,0,0,1.1-3,18.65,18.65,0,0,0-1.88-5.5l-10.73-23.66c2.47-2.25,4.49-4.18,6.07-5.81C122.92,157.05,125.53,154.14,129.69,149.54Zm-5,7.87c-.17.2-.35.39-.52.58q4.15,9.44,8.32,18.86,4.29-6.47,8.72-12.91Q133,160.61,124.69,157.41Z" transform="translate(-48.17 -50.44)"/><path class="cls-4" d="M173.68,131.77q5.06,2.5,10,5.06-2.52,4.17-5,8.37-4.25-2.3-8.51-4.54-1.6,2.81-3.18,5.61l9.6,24.63c2.18.48,4.35,1,6.53,1.47q1.68-2.61,3.38-5.22l1.56,1q-4.22,6.55-8.29,13.15a40.42,40.42,0,0,0-7.94-2,24.85,24.85,0,0,0-6.32.09l-.38-.92a7.52,7.52,0,0,0,1.54-3.69,15.09,15.09,0,0,0-1.42-5.32l-6.91-17.19c-.86-2.17-1.71-3.5-2.53-4a2.41,2.41,0,0,0-2.2-.36q-1,.42-2.19,2.85l-1.64-.75q3.3-5.8,6.71-11.58a23.94,23.94,0,0,1,7.37,2.62,6.14,6.14,0,0,1,2.31,3.14Q169.91,138,173.68,131.77Z" transform="translate(-48.17 -50.44)"/><path class="cls-4" d="M186.14,132.44q3.95-9.75,8.12-19.47l1.4-.49q1.8,6,3.62,12,4.8-1.67,9.61-3.28c.54,1.61,1.07,3.22,1.61,4.83q-4.78,1.6-9.55,3.26l10,28.91c2.13.6,4.26,1.19,6.38,1.8l2.21-3.15,1.59.91q-3.81,5.49-7.51,11a27.31,27.31,0,0,0-14-2.56l-.31-.85a6.71,6.71,0,0,0,1.56-3.27,11.25,11.25,0,0,0-.86-4.86l-8.79-24.53-4.44,1.6Z" transform="translate(-48.17 -50.44)"/><path class="cls-4" d="M222.39,114.83c3.53,1.22,7,2.46,10.53,3.72q-1.38,2.24-2.74,4.49,3.69,11.79,7.39,23.57,1.17,3.72,2.19,4.64c.68.61,1.26.85,1.73.7a2.06,2.06,0,0,0,.86-.5,27.11,27.11,0,0,0,1.89-2.49l1.54,1q-3.81,5.29-7.52,10.63c-3-.87-5.06-1.9-6.24-3.13s-2.36-3.65-3.54-7.28l-7.83-24.1c-1.55-.71-3.1-1.43-4.65-2.13C218.11,120.9,220.24,117.87,222.39,114.83Zm-1-16,6.21-1.94q-1.94,5.73-3.8,11.46l-1.94.62Q221.59,103.94,221.36,98.87Z" transform="translate(-48.17 -50.44)"/><path class="cls-4" d="M260.29,88.53c.14,2.56.29,5.13.44,7.69q-4.74.32-9.49.67,1.5,5.27,3,10.53,3.75-1.07,7.51-2.1l1.35,4.9c-2.49.69-5,1.38-7.47,2.09q4.17,14.66,8.32,29.31l6.31,2.24,2.88-3.76,1.41.93q-4.32,5.58-8.51,11.19A31.87,31.87,0,0,0,252.37,149c-.19-.32-.39-.64-.59-1a6.83,6.83,0,0,0,1.7-2.78,8.21,8.21,0,0,0-.15-4.64q-3.77-12.75-7.52-25.48l-4.51,1.34c-.48-1.62-1-3.25-1.46-4.87,1.51-.46,3-.91,4.54-1.35q-1.56-5.25-3.1-10.5a118,118,0,0,0,9-10.72C253.61,88.86,257,88.68,260.29,88.53Z" transform="translate(-48.17 -50.44)"/><path class="cls-4" d="M278.09,98.8c3.43,1.43,6.86,2.87,10.26,4.32q-1.5,2.16-3,4.33l6,24q1,3.79,1.92,4.77c.64.65,1.2.91,1.68.79a2,2,0,0,0,.88-.45,23.65,23.65,0,0,0,2-2.37l1.48,1.09q-4.1,5.06-8.09,10.16-4.37-1.54-6-3.48t-3.11-7.47q-3.21-12.25-6.43-24.51l-4.5-2.41Q274.61,103.16,278.09,98.8Zm-.13-16,6.29-1.57c-1.5,3.74-3,7.47-4.43,11.22l-2,.49Q277.9,87.88,278,82.81Z" transform="translate(-48.17 -50.44)"/><path class="cls-4" d="M312.75,90.55q7.08,1.89,14.1,3.89c-1.26,2.67-2.5,5.33-3.73,8q-5.26-1.51-10.58-3,3.13,14.14,6.28,28.28,5.07.93,10.12,1.89c1.4-1.46,2.81-2.93,4.23-4.39.3.6.6,1.2.89,1.8q-5,5.25-9.9,10.55a55.3,55.3,0,0,0-8.44-1.82,50.52,50.52,0,0,0-8.27-.17c-.08-.35-.16-.7-.25-1.06a5.57,5.57,0,0,0,1.63-2.8,14.83,14.83,0,0,0-.51-5.57L302.47,101A47.21,47.21,0,0,0,312.75,90.55Z" transform="translate(-48.17 -50.44)"/><path class="cls-4" d="M365.84,82.36l1.87.34A27.37,27.37,0,0,0,365.29,89a16.76,16.76,0,0,0,.19,5.51l3.18,19.09q.79,4.74,1.7,5.81a2.05,2.05,0,0,0,1.91.91,2.67,2.67,0,0,0,1-.43c.21-.18.8-.81,1.79-1.87l1.39,1.2q-4.39,4.93-8.69,9.9a18.3,18.3,0,0,1-5.7-4,13.24,13.24,0,0,1-2.43-5.69q-6.26,6.64-12.34,13.37c-6.16-3.13-9.7-6.68-10.52-10.72a17.2,17.2,0,0,1,.24-8,49.44,49.44,0,0,1,6-12.53q-4-5.18-8.08-10.33c.15-.43.31-.85.46-1.28,1.29-.16,2.24-.3,2.86-.42a15,15,0,0,0,9.43-6.07,39.5,39.5,0,0,0,8.38,1.65,28.58,28.58,0,0,0,6.7,0,3.13,3.13,0,0,0,1.52-.59A10.38,10.38,0,0,0,365.84,82.36ZM355,93q-8.78-.87-17.6-1.58,4.11,5.16,8.13,10.36,5.78,1.31,11.5,2.67Q356,98.69,355,93Zm2.36,13.32q-6.29-1.5-12.61-2.93a22.22,22.22,0,0,0-.87,10.07c.93,4.83,4,8.34,9.25,10.61q3.06-3.37,6.18-6.74Z" transform="translate(-48.17 -50.44)"/><path class="cls-4" d="M375,83.93q5.67-8.79,11.57-17.51l1.45-.2q.61,6.24,1.24,12.48c3.32-.46,6.63-.91,9.95-1.34l.66,5Q395,83,390,83.74q2.12,15.15,4.25,30.31,2.92,1.49,5.84,3l2.75-2.66,1.37,1.2q-4.74,4.65-9.38,9.34a27.08,27.08,0,0,0-13.08-5.24l-.14-.89a6.63,6.63,0,0,0,2.14-2.91,11.55,11.55,0,0,0,.09-4.93Q381.91,98.08,380,85.2l-4.62.7C375.24,85.25,375.14,84.59,375,83.93Z" transform="translate(-48.17 -50.44)"/><path class="cls-4" d="M425.73,72.4q7.78,6.7,15.36,13.54Q430.73,94,420.71,102.3c.3,2.74.61,5.48.91,8.22q5.79,1.45,11.52,3,3.51-2.81,7.05-5.56l1.18,1.26Q434.08,115,427,120.94a59.1,59.1,0,0,0-8.12-2.57,68.48,68.48,0,0,0-8.92-1.13c0-.37-.09-.75-.14-1.12a4.73,4.73,0,0,0,1.9-2.5,18.65,18.65,0,0,0-.15-5.82Q410,94.92,408.41,82q4.44-2.1,7.37-3.7C417.2,77.52,420.49,75.53,425.73,72.4Zm-7,6-.66.39,2.28,20.49q5.91-4.87,11.94-9.68Q425.6,84,418.75,78.4Z" transform="translate(-48.17 -50.44)"/><path class="cls-4" d="M506.9,74l.75,34a83,83,0,0,0-10.27,4.82,25.21,25.21,0,0,0-4.56,3.43,63.53,63.53,0,0,0-11.69-5,26.81,26.81,0,0,0-7.87-.94l-.53-.88a7.5,7.5,0,0,0,2.15-2.76,14.29,14.29,0,0,0,.38-5.25q-.69-12.45-1.37-24.9a50.09,50.09,0,0,0,15.21-8.54A62.87,62.87,0,0,0,506.9,74Zm-21.73,30.3q6.39,2.14,12.72,4.38L497,79.84c-4.1-1.62-7-2.65-8.72-3.13a26.43,26.43,0,0,0-4.35-.82Q484.54,90.08,485.17,104.28Z" transform="translate(-48.17 -50.44)"/><path class="cls-4" d="M540.37,52.68q-.84,3.76-1.66,7.52-4.61-1-9.23-2,0,5.47,0,10.94l7.73,0c0,1.69,0,3.39,0,5.08-2.56,0-5.13,0-7.69,0q0,15.24,0,30.47l5.41,3.88,3.76-2.83,1.09,1.28q-5.62,4.19-11.15,8.43a31.52,31.52,0,0,0-12.14-6.82l-.3-1.08a6.92,6.92,0,0,0,2.37-2.21,8.32,8.32,0,0,0,1.11-4.51q-.12-13.27-.25-26.56l-4.67,0-.07-5.08c1.56,0,3.12,0,4.69-.06,0-3.65-.07-7.29-.11-10.94a118,118,0,0,0,11.48-7.86Q535.54,51.54,540.37,52.68Z" transform="translate(-48.17 -50.44)"/><path class="cls-4" d="M597.51,55.6,598.66,57Q590.83,61,586.89,66a24.76,24.76,0,0,0-5.47,14.34c-.34,6.38,1.63,12.39,5.8,18.07,2-1.37,3.27-2.54,3.72-3.53s.82-3.75,1.11-8.28q.65-10.15,1.3-20.3,11.22-7.41,22.79-14.56a90.73,90.73,0,0,0,11.61,4.54,61.18,61.18,0,0,0,10.09,1.83l1.16.13.66,1.73q-4.54,3.1-9,6.25c-5.49-1.1-11.57-3.52-18.33-7.24q-1.86,25.87-3.76,51.73l1.81.19a35.37,35.37,0,0,0,12.73-1.08,47.11,47.11,0,0,0,12.5-6l1.32,1.49a49.31,49.31,0,0,1-9.7,8.07,35.9,35.9,0,0,1-10.75,4.14,40.25,40.25,0,0,1-12,.92,36.51,36.51,0,0,1-16.2-5.19,31.88,31.88,0,0,1-15.32-28,28.86,28.86,0,0,1,7.29-17.92C583.81,63.2,589.56,59.22,597.51,55.6ZM610,58.52q-3.13,2.05-6.24,4.14l-1.53,20.67a18.82,18.82,0,0,1-.82,5.09,9.6,9.6,0,0,1-2.51,3.42A91.27,91.27,0,0,1,588.4,100a30.28,30.28,0,0,0,7.87,6.72,33.32,33.32,0,0,0,10.09,3.64Q608.19,84.43,610,58.52Z" transform="translate(-48.17 -50.44)"/><path class="cls-4" d="M680.55,85.26Q678,102,675.4,118.84a84.47,84.47,0,0,0-11,3,25.19,25.19,0,0,0-5.09,2.59,63.88,63.88,0,0,0-10.66-7,26.59,26.59,0,0,0-7.6-2.29l-.38-1a7.27,7.27,0,0,0,2.6-2.35,14.24,14.24,0,0,0,1.29-5.1q1.49-12.37,3-24.76A50.13,50.13,0,0,0,664,76.18,62.87,62.87,0,0,0,680.55,85.26Zm-26.7,26.09q5.94,3.21,11.79,6.5l4.08-28.54c-3.77-2.3-6.47-3.82-8.07-4.59a27.62,27.62,0,0,0-4.15-1.57Q655.69,97.25,653.85,111.35Z" transform="translate(-48.17 -50.44)"/><path class="cls-4" d="M755.5,95.62l1.14,1.52a20.81,20.81,0,0,0-4.58,2.67,7.3,7.3,0,0,0-1.85,2.37,31.53,31.53,0,0,0-1.53,5.37q-2.08,9.2-4.18,18.4-.82,3.63-.33,5c.33.92.72,1.42,1.17,1.53.62.14,1.85-.21,3.69-1.06.28.55.56,1.09.83,1.64-4,1.8-8,3.62-11.91,5.47a19,19,0,0,1-3.58-5.24,10.35,10.35,0,0,1-.36-5.61q2.9-13.36,5.78-26.73c-1.34-1.64-2.69-3.27-4-4.91q-4.57,2.49-9.09,5-2.45,12-4.88,24.06,1.41,2.15,2.8,4.31c-3.15,1.42-6.29,2.87-9.41,4.32q-3.55-3.81-7.18-7.6l4.13-2.94L716.38,101c.5-2.59.61-4.29.33-5.12q-.59-1.68-3.55-4.41-4.42,2.23-8.81,4.51-2.24,12.45-4.46,24.9l3,4.26q-4.7,2.25-9.35,4.54-3.69-3.75-7.45-7.46l4.3-3,4.05-24a10.86,10.86,0,0,0-.11-5.55c-.39-.92-.81-1.42-1.25-1.5s-1.71.32-3.52,1.22c-.32-.53-.65-1.06-1-1.59q5.73-3.12,11.53-6.17a22.87,22.87,0,0,1,4,4.31,8.17,8.17,0,0,1,1.17,3.27,23.94,23.94,0,0,1-.53,4.66q8.26-4.25,16.7-8.34c2.77,2.94,4.48,5.28,5.16,7a12.23,12.23,0,0,1,.54,6.13q8-4.38,16.07-8.64,3.27,4.27,6.48,8.55Z" transform="translate(-48.17 -50.44)"/><path class="cls-4" d="M760.45,101.21q5.92-2.19,11.9-4.3c2.24,2.3,3.6,4.27,4.1,5.9a11.44,11.44,0,0,1-.19,6.13q7.57-3.59,15.28-7.06c3.51,3.92,5.67,7.09,6.53,9.47a10.27,10.27,0,0,1-.25,6.1L791,141.94c-4.55.58-10,2.41-16.23,5.55a65.09,65.09,0,0,0-6.82-5.9c-.26,1-.53,2.08-.8,3.12q-1.4,5.5-.86,8.17a10.73,10.73,0,0,0,3,5.25c-.3.34-.61.68-.91,1a40.49,40.49,0,0,1-6.7-5.24,12.37,12.37,0,0,1-2.41-3.93,21,21,0,0,1-7.21,2.3c-.14-.34-.29-.69-.43-1a11.39,11.39,0,0,0,3.7-3.05,14.61,14.61,0,0,0,2.11-5.12c.52-2.14,1-4.29,1.58-6.43a28.7,28.7,0,0,0-5.32-1.8c-.16,0-.41-.09-.76-.14.29-1.24.59-2.47.88-3.71a51.22,51.22,0,0,1,6.46.48q2.7-11,5.38-22c.59-2.38.63-4.12.13-5.2a3.06,3.06,0,0,0-1.9-1.91,4.35,4.35,0,0,0-2.61.58C761,102.4,760.73,101.8,760.45,101.21Zm15.23,10-5.82,22.74c3.49,1.64,5.83,2.83,7.06,3.55a37.48,37.48,0,0,1,4.21,2.93l6.63-24.6a9.85,9.85,0,0,0,.48-2.44,6.07,6.07,0,0,0-1.06-1.72,52.81,52.81,0,0,0-3.51-4.31C781,108.61,778.33,109.89,775.68,111.19Z" transform="translate(-48.17 -50.44)"/><path class="cls-4" d="M835,97.19c-.11.37-.23.75-.35,1.12a12.47,12.47,0,0,0-6.8,2.68c-1.58,1.39-2.9,3.85-4,7.35Q818,127.64,812.12,147c1.39,1.77,2.77,3.55,4.15,5.32l2.52-.92.66,1.92q-5.66,1.83-11.27,3.73a46.56,46.56,0,0,0-4.89-6.44,25.77,25.77,0,0,0-4.9-3.67l.28-1a6,6,0,0,0,2.57-1.28,7.76,7.76,0,0,0,1.78-2.36c.16-.34.72-2.06,1.67-5.19L813.84,106a30.75,30.75,0,0,0,1.27-5.61,8.12,8.12,0,0,0-.5-3.36,15.73,15.73,0,0,0-2.56-4.18l1-.64a17.81,17.81,0,0,1,6.65,7,24.21,24.21,0,0,1,8-2.7A19.39,19.39,0,0,1,835,97.19Z" transform="translate(-48.17 -50.44)"/><path class="cls-4" d="M857.75,122.2q4.31,9.39,8.39,18.81-12.93,2.91-25.63,6.17-1.32,3.91-2.63,7.83,4.68,3.78,9.31,7.61c2.93-.7,5.88-1.37,8.83-2,.18.55.36,1.1.55,1.64q-9.17,2.17-18.18,4.52A59.69,59.69,0,0,0,832,161a69.55,69.55,0,0,0-7.7-4.81l.35-1.08a4.7,4.7,0,0,0,2.79-1.46q.94-1.1,2.32-5.33,4-12.36,8-24.71c3.3,0,6.08-.08,8.32-.23C847.75,123.22,851.62,122.81,857.75,122.2Zm-8.94,2.47-.77.08-6.57,19.55q7.49-1.92,15.06-3.7Q852.75,132.62,848.81,124.67Z" transform="translate(-48.17 -50.44)"/><path class="cls-4" d="M872.7,132.77q9.28-4.94,18.75-9.69l1.39.53-5,11.53q4.75,1.81,9.5,3.68l-1.86,4.73q-4.72-1.86-9.45-3.66l-10.92,28.59c1.26,1.83,2.51,3.65,3.75,5.48l3.73-1c.21.57.42,1.14.64,1.72q-6.46,1.74-12.87,3.59a27.45,27.45,0,0,0-9.07-10.95c.1-.29.21-.57.31-.86A6.68,6.68,0,0,0,865,165a11.31,11.31,0,0,0,2.47-4.27q4.51-12.22,9-24.44L872,134.64C872.25,134,872.48,133.39,872.7,132.77Z" transform="translate(-48.17 -50.44)"/><path class="cls-4" d="M911.91,142.65q2.91,4.82,5.74,9.64l-5,1.67-9.49,22.8c-1,2.41-1.44,4.06-1.31,5s.43,1.46.89,1.65a2.1,2.1,0,0,0,1,.17,26,26,0,0,0,3.07-.68c.18.59.37,1.18.55,1.76q-6.36,1.59-12.67,3.26c-1.74-2.58-2.68-4.72-2.8-6.42s.53-4.31,2-7.85l9.51-23.49c-.73-1.54-1.47-3.09-2.21-4.63Q906.5,144,911.91,142.65Zm9.51-12.88,6.05,2.54q-5.19,3.13-10.33,6.31l-1.89-.78C917.3,135.14,919.35,132.46,921.42,129.77Z" transform="translate(-48.17 -50.44)"/><path class="cls-4" d="M960.82,171.62l-14.64,30.65a85.36,85.36,0,0,0-11.57-.43,25.26,25.26,0,0,0-5.71,1,65.6,65.6,0,0,0-8.39-9.86,27.93,27.93,0,0,0-6.76-4.46c0-.34,0-.68-.08-1a7.39,7.39,0,0,0,3.2-1.48,14.14,14.14,0,0,0,2.72-4.51l10-22.85a51.66,51.66,0,0,0,17.73-.63A65.3,65.3,0,0,0,960.82,171.62Zm-33.53,17q4.86,4.84,9.64,9.75,6.08-13.08,12.16-26.15-4.53-5-6.55-6.8a28.85,28.85,0,0,0-3.6-2.74Q933.12,175.7,927.29,188.66Z" transform="translate(-48.17 -50.44)"/><path class="cls-4" d="M1001.18,184.53q1.5,4.65,3,9.31c2.14-.47,4.28-.92,6.43-1.37l.69,1.77q-4.57.82-6,1.79a12.08,12.08,0,0,0-3.53,4.36l-10.29,19a7.77,7.77,0,0,0-1.21,4.43,1.83,1.83,0,0,0,.81,1.53c.41.22,1.65.22,3.73,0,.13.61.26,1.22.38,1.82q-6.57.94-13.09,2c-1.5-3-2.27-5.25-2.27-6.9s.75-3.92,2.26-6.79l11.59-22q-1-2.92-2-5.85-5.29.75-10.56,1.55l-11.45,22.44c.61,1.53,1.21,3,1.81,4.58q-5.36.9-10.67,1.88-2.4-4.86-4.87-9.71l4.74-1.28L971,186.41q2.21-4.42,2-6.47a2.14,2.14,0,0,0-1-1.83c-.61-.3-1.79-.22-3.53.24-.16-.6-.33-1.21-.5-1.81q6.61-1.22,13.27-2.35c1.81,3.13,2.77,5.39,2.91,6.76a8.67,8.67,0,0,1-1.18,4.8c-.25.49-.49,1-.74,1.46Q991.6,185.77,1001.18,184.53Z" transform="translate(-48.17 -50.44)"/></g></g></svg>