<svg xmlns="http://www.w3.org/2000/svg" viewBox="0 0 854 519.43"><defs><style>.cls-1{isolation:isolate;}.cls-2{opacity:0.45;mix-blend-mode:multiply;}.cls-3{fill:#010101;}.cls-4{fill:#304982;}</style></defs><g class="cls-1"><g id="Layer_1" data-name="Layer 1"><g class="cls-2"><path class="cls-3" d="M142.88,148.23l3.68,1.16C139,160,134.44,169.86,132.8,178.77a47.91,47.91,0,0,0,4.59,31.68c6.13,11.72,16.25,20.17,29.93,25.85,2.36-4.61,3.49-8,3.32-10.3s-2.31-7.61-6.43-16.05Q155,191,145.74,172.11q14.32-25.67,30.68-50.86c12.11-1.12,21.38-2.23,27.91-3.61A168,168,0,0,0,226.54,111l2.47-.89,2.93,2.59q-6.36,10.14-12.4,20.35c-12,3.38-26.5,5-43.69,5.4q21.87,49,43.63,98.07l3.55-1.43a79.57,79.57,0,0,0,22.78-14.29c6.32-5.77,12.31-13.35,18.18-22.78l3.88,1.57c-3.34,9.68-7,17.65-11,23.93a79.58,79.58,0,0,1-16.15,17.79,90.24,90.24,0,0,1-21.27,13.38,82.21,82.21,0,0,1-34.89,7.12,68.1,68.1,0,0,1-34.12-9.38c-10.53-6.16-18.59-13.94-23.91-23.6C120,217,118,203.62,121.22,188.8,123.74,177.2,130.78,163.55,142.88,148.23ZM170.76,140q-4.2,7.07-8.26,14.16l17.86,39q3.33,7.28,3.54,10.07a19.57,19.57,0,0,1-1.33,8.81,223.56,223.56,0,0,1-11.46,25.77,68.06,68.06,0,0,0,21.54,3.81A76.27,76.27,0,0,0,215,238Q193,189,170.76,140Z" transform="translate(-113 -45.28)"/><path class="cls-3" d="M302.28,118.83q19.11,10.73,37.29,22.23Q320,161,302.12,181.79q2.46,8.19,4.93,16.38,12.45.78,24.72,1.93,6.24-6.89,12.69-13.69l2.82,2.21q-13.2,14.2-25.48,28.81a112.76,112.76,0,0,0-17.45-2.22,128.18,128.18,0,0,0-18.62,1.28c-.25-.74-.5-1.49-.74-2.23a9.88,9.88,0,0,0,2.86-5.85c.14-2-.73-5.91-2.64-11.75l-16.74-51.09c5.8-4.14,10.62-7.68,14.42-10.68C285.63,132.67,292,127.24,302.28,118.83Zm-13,15L288,134.9l12.3,40.87q10.57-12.24,21.77-24.21Q306,142.39,289.29,133.83Z" transform="translate(-113 -45.28)"/><path class="cls-3" d="M402.31,96.94q9.54,7.11,18.79,14.42-7.17,7.4-14.09,14.91-7.78-6.37-15.81-12.61-4.51,5.1-8.94,10.24,5.07,26.88,10.13,53.75,6.32,2.74,12.55,5.56,4.38-4.62,8.86-9.2l2.75,2.61q-11.13,11.5-21.6,23.32a77.42,77.42,0,0,0-15.14-7.05,48.37,48.37,0,0,0-12.73-2.07l-.45-2c2.43-2.53,3.89-4.85,4.36-7s.12-5.9-1.05-11.36q-4-18.75-8-37.49c-1-4.72-2.28-7.73-3.82-9a5.16,5.16,0,0,0-4.48-1.47c-1.58.35-3.47,2-5.65,5.12l-3.18-2.06q9-10.83,18.51-21.46c6.93,2.74,11.74,5.42,14.51,8,1.78,1.57,3,4,3.58,7.26Q391.59,108,402.31,96.94Z" transform="translate(-113 -45.28)"/><path class="cls-3" d="M428.18,103.52Q441,85.52,455,67.89l3.23-.31q.66,13,1.36,25.92,10.89-1,21.79-1.82l.75,10.5q-10.77.78-21.53,1.8,3,31.53,6,63.06,5.94,3.35,11.78,6.78c2-1.73,4-3.46,6-5.18l2.69,2.64q-10.32,9-20.17,18.3a53.18,53.18,0,0,0-26.47-11.74l-.24-1.87a14,14,0,0,0,4.58-5.88c.84-2.44,1-5.85.48-10.21q-3.24-26.76-6.47-53.54c-3.35.41-6.69.83-10,1.27Z" transform="translate(-113 -45.28)"/><path class="cls-3" d="M513.09,86.13Q523,92.7,532.66,99.5c-2.8,2.43-5.57,4.89-8.32,7.35L525.57,158q.2,8.08,1.69,10.49c1,1.61,2,2.4,3,2.39a4.32,4.32,0,0,0,2-.51,49.74,49.74,0,0,0,5.14-3.83l2.46,2.9q-10.58,8.25-20.71,16.77c-5.31-3.4-8.83-6.61-10.49-9.7s-2.69-8.58-3.07-16.47L503,107.62q-4.17-3.41-8.4-6.76Q503.71,93.41,513.09,86.13Zm7.37-32.39q7.18-.2,14.36-.28-7.68,10.24-15,20.6l-4.42.14Q517.86,64,520.46,53.74Z" transform="translate(-113 -45.28)"/><path class="cls-3" d="M609.23,57.72q-2.29,7.66-4.55,15.34-10-2.62-20.15-5l-1,22.63q8.41.36,16.82.87-.32,5.25-.64,10.51-8.31-.51-16.62-.86-1.33,31.5-2.66,63,5.47,4.23,10.82,8.53,4-2.75,8.08-5.45l2.11,2.78q-12.11,8-23.74,16.32c-7.69-7.33-15.92-12.3-24.47-14.89l-.57-2.26a14.33,14.33,0,0,0,5-4.45,17.33,17.33,0,0,0,2.56-9.27l1-55q-5-.09-10.09-.12l.07-10.53q5.1,0,10.21.12l.39-22.64C573.14,61.17,581.9,56.12,587.87,52Q598.61,54.73,609.23,57.72Z" transform="translate(-113 -45.28)"/><path class="cls-3" d="M638.49,90.31q8.94,7.89,17.56,16-4.66,3-9.27,6.13-2.92,25.39-5.84,50.8-.93,8,.22,10.62c.76,1.73,1.64,2.65,2.65,2.77a4.23,4.23,0,0,0,2-.22,50.43,50.43,0,0,0,5.63-3.08l2,3.2q-11.62,6.71-22.86,13.75c-4.8-4.1-7.85-7.77-9.06-11.06s-1.48-8.87-.76-16.73l4.74-52.23q-3.66-3.94-7.39-7.85Q628.18,96.23,638.49,90.31Zm11.79-31.06q7.14.81,14.28,1.72-9,9.07-17.76,18.32l-4.4-.48Q646.29,69,650.28,59.25Z" transform="translate(-113 -45.28)"/><path class="cls-3" d="M715.23,101.56q12.66,9.51,24.83,19.39-7.21,5.86-14.25,11.86-9.07-7.32-18.43-14.46l-10.92,59q8.92,5.85,17.64,11.9,5.82-2.42,11.71-4.74l.15,4.16q-13.92,5.64-27.39,11.75a104.44,104.44,0,0,0-14.42-10.24,93.51,93.51,0,0,0-15.54-6.76c.11-.75.22-1.49.34-2.23a11.57,11.57,0,0,0,5.26-4.13c1.42-2.25,2.56-5.94,3.38-11.07q4.23-26.41,8.45-52.81A111.51,111.51,0,0,0,715.23,101.56Z" transform="translate(-113 -45.28)"/><path class="cls-3" d="M828,134.92l3.34,2.5c-5.42,3.74-9,6.8-10.88,9.13a33.05,33.05,0,0,0-5,10.29q-6.16,19-12.32,38.09-3.06,9.48-2.4,12.32t2.66,3.49a5.51,5.51,0,0,0,2.33.21c.56-.13,2.25-.69,5.11-1.68l1.39,3.55q-12.9,4.73-25.44,9.85c-3.7-5.1-6-9.3-6.79-12.65s-.55-7.6.77-12.77q-17.87,6.48-35,13.72c-8.66-11.28-12.3-21-10.35-29.29a34.69,34.69,0,0,1,7.39-14.79c4.81-5.62,12.32-11.72,22.75-18.08q-3.1-13.29-6.56-26.59l2.06-2c2.69.86,4.7,1.47,6,1.81a34.4,34.4,0,0,0,24.21-2.55,97,97,0,0,0,15,11.06c5.56,3.37,9.9,5.59,13.09,6.61a7.23,7.23,0,0,0,3.53.41A21.11,21.11,0,0,0,828,134.92Zm-31.39,8.9q-16.23-10-33-19.27,3.45,13.35,6.53,26.71,10,7.71,19.66,15.64Q793.18,155.35,796.59,143.82Zm-8,26.85q-10.56-8.7-21.51-17.12c-5.76,6.4-9.28,12.44-10.72,18-2.53,9.86.24,19.17,7.91,28.12q8.79-3.51,17.75-6.84Z" transform="translate(-113 -45.28)"/><path class="cls-3" d="M844.34,147.08q19.78-10.14,40.47-19.41l3.06,1.22q-5.31,11.84-10.59,23.7,10.32,4.08,20.58,8.44l-4.11,9.69q-10.14-4.31-20.35-8.34l-23.29,58.9q3.84,5.73,7.58,11.48c2.58-.64,5.17-1.25,7.77-1.86l1.23,3.58q-13.49,3.27-26.64,7a54.12,54.12,0,0,0-18.56-22.62l.64-1.77c3.09-.69,5.36-1.73,6.81-3.14q2.8-2.69,5.09-8.86l18.57-50.63q-4.82-1.77-9.63-3.48C843.42,149.68,843.88,148.38,844.34,147.08Z" transform="translate(-113 -45.28)"/><path class="cls-3" d="M953.86,182.78Q961,203.71,967,224.66q-28.47,1.18-56,4.4l-7.39,15.42q8.82,9,17.32,18.28,9.39-.83,18.9-1.4c.22,1.19.43,2.37.65,3.56q-19.68,1.38-38.83,3.8a114.65,114.65,0,0,0-11.61-13.51,133.38,133.38,0,0,0-14.79-11.68c.31-.71.63-1.43.94-2.15a9.87,9.87,0,0,0,6.1-2.38q2.19-2.06,6-10.45,11-24.53,22-49c7.14.88,13.15,1.53,18,1.9C932,181.65,940.39,182,953.86,182.78Zm-20,2.2-1.68-.07q-9.22,19.23-18.46,38.48,16.25-1.83,32.84-3Q940.69,202.69,933.91,185Z" transform="translate(-113 -45.28)"/></g><path class="cls-4" d="M136.17,141.52l3.68,1.16c-7.62,10.62-12.13,20.47-13.76,29.37a47.82,47.82,0,0,0,4.59,31.69c6.13,11.72,16.25,20.17,29.92,25.85,2.37-4.62,3.5-8.05,3.33-10.3s-2.31-7.61-6.43-16.06Q148.26,184.32,139,165.4q14.33-25.68,30.68-50.86c12.1-1.12,21.37-2.24,27.9-3.61a167.58,167.58,0,0,0,22.21-6.61l2.48-.89,2.93,2.59q-6.37,10.13-12.41,20.35c-12,3.37-26.49,5-43.69,5.39q21.88,49,43.63,98.07l3.56-1.42a79.73,79.73,0,0,0,22.77-14.29c6.32-5.77,12.32-13.35,18.18-22.79l3.88,1.58c-3.33,9.68-7,17.65-11,23.92A79.31,79.31,0,0,1,234,234.62,89.6,89.6,0,0,1,212.74,248a81.93,81.93,0,0,1-34.89,7.12,67.93,67.93,0,0,1-34.13-9.38c-10.53-6.15-18.59-13.93-23.9-23.6-6.55-11.9-8.52-25.24-5.31-40.06C117,170.48,124.06,156.83,136.17,141.52Zm27.88-8.26q-4.22,7.06-8.26,14.16l17.85,39q3.33,7.27,3.55,10.07a19.75,19.75,0,0,1-1.34,8.81,225,225,0,0,1-11.45,25.77,68.29,68.29,0,0,0,21.54,3.81,76.26,76.26,0,0,0,22.37-3.63Q186.25,182.23,164.05,133.26Z" transform="translate(-113 -45.28)"/><path class="cls-4" d="M295.56,112.11q19.11,10.73,37.3,22.24-19.64,19.93-37.45,40.73l4.92,16.38q12.45.76,24.73,1.93,6.22-6.9,12.68-13.69l2.83,2.2q-13.21,14.21-25.48,28.82a110.62,110.62,0,0,0-17.45-2.22A128.09,128.09,0,0,0,279,209.78l-.75-2.23a9.88,9.88,0,0,0,2.86-5.86q.22-3-2.63-11.74-8.37-25.55-16.75-51.09,8.7-6.21,14.42-10.69C278.92,126,285.26,120.52,295.56,112.11Zm-13,15-1.27,1.06q6.15,20.44,12.29,40.87,10.57-12.24,21.78-24.2Q299.31,135.67,282.57,127.12Z" transform="translate(-113 -45.28)"/><path class="cls-4" d="M395.6,90.23q9.54,7.11,18.79,14.41-7.17,7.39-14.09,14.91-7.8-6.37-15.81-12.6-4.53,5.1-8.94,10.24,5.06,26.87,10.12,53.75,6.33,2.73,12.56,5.56,4.38-4.63,8.86-9.21l2.74,2.61q-11.11,11.52-21.6,23.32a77.65,77.65,0,0,0-15.13-7.05,49.27,49.27,0,0,0-12.73-2.07l-.45-2c2.43-2.53,3.89-4.85,4.35-7s.12-5.91-1-11.36q-4-18.75-8-37.5c-1-4.71-2.28-7.73-3.82-9a5.17,5.17,0,0,0-4.47-1.48c-1.59.35-3.48,2.06-5.65,5.13l-3.18-2.07q9-10.82,18.5-21.46c6.93,2.74,11.75,5.43,14.52,8,1.77,1.57,3,4,3.58,7.26Q384.87,101.28,395.6,90.23Z" transform="translate(-113 -45.28)"/><path class="cls-4" d="M421.47,96.81q12.82-18,26.8-35.64l3.23-.31q.66,13,1.36,25.93,10.88-1,21.79-1.82l.75,10.5q-10.78.77-21.54,1.8,3,31.53,6.05,63.06,5.94,3.34,11.78,6.78,3-2.6,6-5.18l2.68,2.63q-10.31,9-20.17,18.31a53.16,53.16,0,0,0-26.46-11.75l-.24-1.86a14.06,14.06,0,0,0,4.57-5.89q1.28-3.66.48-10.2-3.22-26.77-6.46-53.54c-3.35.4-6.7.83-10,1.27Z" transform="translate(-113 -45.28)"/><path class="cls-4" d="M506.37,79.41Q516.3,86,526,92.78q-4.2,3.66-8.32,7.36l1.23,51.11q.2,8.08,1.68,10.49c1,1.61,2,2.4,3,2.38a4.15,4.15,0,0,0,2-.5,50.19,50.19,0,0,0,5.14-3.83c.83,1,1.65,1.93,2.46,2.89q-10.56,8.25-20.7,16.77c-5.32-3.4-8.84-6.61-10.49-9.7s-2.69-8.58-3.07-16.46q-1.26-26.19-2.53-52.39c-2.77-2.26-5.57-4.52-8.4-6.75Q497,86.68,506.37,79.41ZM513.75,47q7.17-.2,14.35-.27-7.68,10.23-15,20.6l-4.42.13Q511.14,57.25,513.75,47Z" transform="translate(-113 -45.28)"/><path class="cls-4" d="M602.52,51q-2.31,7.66-4.55,15.33-10-2.61-20.16-5-.48,11.31-.95,22.63,8.42.36,16.82.86c-.21,3.51-.43,7-.64,10.51q-8.31-.51-16.63-.85-1.32,31.5-2.65,63,5.46,4.23,10.82,8.53,4-2.75,8.08-5.44l2.1,2.78q-12.1,8-23.74,16.32c-7.69-7.33-15.91-12.31-24.47-14.89L546,162.5a14.28,14.28,0,0,0,5-4.45,17.35,17.35,0,0,0,2.55-9.26q.5-27.49,1-55-5.06-.09-10.09-.12l.06-10.52q5.12,0,10.21.12.21-11.33.4-22.65c11.33-6.19,20.08-11.23,26-15.36Q591.89,48,602.52,51Z" transform="translate(-113 -45.28)"/><path class="cls-4" d="M631.77,83.6q8.94,7.89,17.57,16-4.67,3-9.27,6.13l-5.85,50.79q-.91,8,.22,10.62c.76,1.73,1.65,2.66,2.65,2.78a4.23,4.23,0,0,0,2-.23,50.22,50.22,0,0,0,5.64-3.08c.68,1.07,1.36,2.14,2,3.21q-11.62,6.71-22.85,13.74c-4.8-4.1-7.86-7.76-9.06-11.06s-1.48-8.86-.77-16.73l4.74-52.22q-3.66-3.94-7.39-7.86Q621.47,89.51,631.77,83.6Zm11.8-31.06q7.14.8,14.27,1.71-9,9.07-17.75,18.33l-4.4-.48Q639.56,62.3,643.57,52.54Z" transform="translate(-113 -45.28)"/><path class="cls-4" d="M708.52,94.84q12.66,9.52,24.83,19.39-7.22,5.88-14.25,11.87-9.08-7.34-18.43-14.47-5.46,29.49-10.93,59,8.94,5.86,17.65,11.91,5.8-2.42,11.7-4.74c0,1.38.11,2.77.15,4.15q-13.9,5.64-27.38,11.75a105.74,105.74,0,0,0-14.42-10.23,93.23,93.23,0,0,0-15.55-6.77c.11-.74.23-1.48.34-2.23a11.52,11.52,0,0,0,5.26-4.13c1.43-2.24,2.57-5.93,3.39-11.07q4.23-26.4,8.45-52.81A111,111,0,0,0,708.52,94.84Z" transform="translate(-113 -45.28)"/><path class="cls-4" d="M821.27,128.21l3.34,2.5c-5.43,3.73-9,6.8-10.88,9.12a32.94,32.94,0,0,0-5,10.29q-6.16,19-12.32,38.1-3.07,9.48-2.4,12.32c.44,1.88,1.32,3.05,2.65,3.49a5.55,5.55,0,0,0,2.34.2c.55-.12,2.25-.69,5.1-1.68l1.4,3.56q-12.9,4.71-25.44,9.85c-3.7-5.1-6-9.31-6.79-12.65s-.55-7.61.76-12.77q-17.87,6.47-35,13.72c-8.66-11.28-12.3-21-10.35-29.29A34.72,34.72,0,0,1,736,160.18c4.82-5.62,12.32-11.73,22.76-18.08q-3.1-13.31-6.57-26.59l2.06-2c2.7.86,4.71,1.47,6,1.81a34.43,34.43,0,0,0,24.22-2.56,95.45,95.45,0,0,0,15,11.06c5.56,3.37,9.9,5.59,13.09,6.61a7.12,7.12,0,0,0,3.53.42A21.5,21.5,0,0,0,821.27,128.21Zm-31.39,8.89q-16.23-9.94-33-19.26,3.45,13.35,6.53,26.71,10,7.69,19.65,15.63Zm-8,26.85q-10.57-8.7-21.52-17.11c-5.75,6.4-9.28,12.43-10.72,18-2.53,9.85.25,19.17,7.92,28.11q8.79-3.51,17.75-6.83Z" transform="translate(-113 -45.28)"/><path class="cls-4" d="M837.63,140.37q19.79-10.16,40.46-19.41l3.07,1.21q-5.31,11.85-10.6,23.7,10.34,4.09,20.59,8.44-2.07,4.84-4.12,9.69-10.12-4.29-20.34-8.34l-23.3,58.91q3.86,5.72,7.58,11.47,3.87-.94,7.77-1.85c.42,1.19.83,2.38,1.24,3.58q-13.49,3.25-26.64,7a54.09,54.09,0,0,0-18.56-22.61l.63-1.77c3.09-.7,5.37-1.74,6.82-3.15q2.81-2.67,5.08-8.86,9.29-25.32,18.58-50.63-4.82-1.75-9.64-3.47Z" transform="translate(-113 -45.28)"/><path class="cls-4" d="M947.15,176.07q7.14,20.93,13.14,41.87-28.47,1.2-55.95,4.41-3.69,7.71-7.4,15.42,8.84,9,17.32,18.27,9.39-.81,18.9-1.39c.22,1.18.44,2.37.65,3.55Q914.13,259.6,895,262a113.49,113.49,0,0,0-11.61-13.5,131.27,131.27,0,0,0-14.79-11.68c.32-.72.63-1.44.95-2.15a9.87,9.87,0,0,0,6.09-2.39q2.21-2,6-10.45,11-24.51,22-49c7.13.87,13.15,1.53,18,1.9C925.23,174.94,933.68,175.23,947.15,176.07Zm-20,2.2-1.68-.08-18.45,38.48q16.25-1.83,32.84-3Q934,196,927.19,178.27Z" transform="translate(-113 -45.28)"/><g class="cls-2"><path class="cls-3" d="M139.66,452.91l3.27,1c-6.76,9.43-10.79,18.15-12.27,26a41.8,41.8,0,0,0,4,27.92c5.42,10.3,14.41,17.68,26.64,22.53,2.14-4.1,3.17-7.15,3-9.14s-2-6.69-5.7-14.1l-16.4-33.2q12.8-22.77,27.19-45.17a231.17,231.17,0,0,0,24.78-3.56A149.87,149.87,0,0,0,213.87,419c.73-.28,1.45-.56,2.19-.83l2.63,2.23q-5.56,9-10.88,18.14c-10.7,3.17-23.57,4.86-38.86,5.39q19.63,42.92,39.17,85.87l3.2-1.32a73.43,73.43,0,0,0,20.49-13A96.58,96.58,0,0,0,248.06,495l3.49,1.31a98.54,98.54,0,0,1-9.77,21.34,72.1,72.1,0,0,1-14.52,16,83.16,83.16,0,0,1-19.2,12.22,75.57,75.57,0,0,1-31.46,6.84A60.24,60.24,0,0,1,146,544.84c-9.39-5.34-16.53-12.15-21.21-20.65-5.76-10.46-7.41-22.23-4.5-35.33C122.61,478.61,128.91,466.51,139.66,452.91Zm24.77-7.58q-3.72,6.27-7.32,12.58,8,17.08,15.95,34.18c2,4.26,3,7.2,3.16,8.85a17.21,17.21,0,0,1-1.21,7.79,193.91,193.91,0,0,1-10.36,22.91A60.86,60.86,0,0,0,184,534.72a70.12,70.12,0,0,0,20.13-3.56Q184.31,488.22,164.43,445.33Z" transform="translate(-113 -45.28)"/><path class="cls-3" d="M312.13,428.11q8,29.85,16,59.7a144.25,144.25,0,0,0-16.55,13.25,45.45,45.45,0,0,0-6.67,8.21c-9.64-2.11-17.54-3.08-23.55-3a50.68,50.68,0,0,0-14.74,2.47l-1.41-1.25c1.57-2.43,2.42-4.42,2.52-6,.18-2-.46-5.18-1.93-9.39L250.9,449.24c10.1-7.09,18.33-14.73,24.69-23.11C286.05,428.3,298.2,428.89,312.13,428.11Zm-26.71,64q12.7.53,25.26,1.46-7.38-25.18-14.75-50.36c-8.45-.84-14.43-1.16-17.87-1.13a55.26,55.26,0,0,0-8.59.81Z" transform="translate(-113 -45.28)"/><path class="cls-3" d="M455.13,394.86l3,1.95a38.37,38.37,0,0,0-6.77,7.31,13.08,13.08,0,0,0-1.94,5.18,55.52,55.52,0,0,0,.5,10.15l3.63,34.15q.7,6.73,2.4,8.79c1.12,1.38,2.1,2,3,1.94,1.19-.12,3.14-1.45,5.89-4l2.43,2.35q-9,8.13-17.65,16.43c-4.69-2.67-7.85-4.94-9.41-6.85a18.64,18.64,0,0,1-4.09-9.39q-3.18-24.69-6.35-49.38-5.21-2.94-10.47-5.84Q412.54,414.81,406,422q3.48,22.07,6.95,44.14,3.86,2.76,7.66,5.55-6.88,6.64-13.56,13.41Q398.45,481,389.62,477q2.6-3.89,5.24-7.73l-7.29-40.41q-1.27-7.08-2.86-8.89c-1.47-1.63-4.6-3.33-9.43-5q-6.46,6.81-12.72,13.73L372,473.69q4.08,2.55,8.12,5.12-6.61,7-13,14.1-8.94-3.71-18.07-7.23,2.61-4.05,5.3-8.09l-10-43.07c-1-4.45-2.43-7.52-4.2-9.2-1.36-1.26-2.48-1.79-3.33-1.59-1,.24-2.84,1.78-5.42,4.63l-2.91-1.92q8-9.48,16.3-18.81c4.94,1.61,8.34,3.09,10.25,4.4a14.44,14.44,0,0,1,4.43,4.67,40,40,0,0,1,2.31,8.22q11.88-13,24.49-25.59c7.06,3.12,11.73,6,14.09,8.44a21.13,21.13,0,0,1,5,10.08q11.5-12.66,23.71-25,8.71,5.26,17.22,10.71Q450.68,399.2,455.13,394.86Z" transform="translate(-113 -45.28)"/><path class="cls-3" d="M467.58,401.62q9.56-7.2,19.42-14.17c5.46,2.76,9.09,5.45,10.93,8s2.86,6.15,3.07,10.77q11.91-10.31,24.39-20.29c8.63,5.09,14.27,9.58,17.09,13.32q2.68,3.64,2.65,10.84-.09,23.13-.19,46.28c-7.84,3.22-16.61,9.13-26,17.82a113.46,113.46,0,0,0-15.15-6.71c.09,1.95.18,3.91.28,5.86q.48,10.32,2.84,14.68c1.57,2.91,4.26,5.41,8,7.55l-1,2.26c-6.34-1.92-11.15-3.75-14.37-5.57a22.65,22.65,0,0,1-6.32-5.51,39.89,39.89,0,0,1-11.23,8l-1.32-1.56a20.78,20.78,0,0,0,4.7-7.35c.85-2.46,1.12-5.81.84-10q-.42-6-.83-12a54.55,54.55,0,0,0-10.4-.13c-.3,0-.77.09-1.42.2l-.57-6.92a88,88,0,0,1,11.73-2.79Q483.36,433.57,482,413c-.31-4.46-1.23-7.48-2.78-9.09s-3.09-2.35-4.59-2.23q-1.74.13-4.43,2.5Zm33.62,8.82q1,21.35,2,42.68c7.1,1,11.9,1.86,14.48,2.48a65.83,65.83,0,0,1,9,3q-.42-23.19-.83-46.37a16.36,16.36,0,0,0-.42-4.5,10.8,10.8,0,0,0-2.86-2.46,96.23,96.23,0,0,0-8.79-5.72Q507.39,404.94,501.2,410.44Z" transform="translate(-113 -45.28)"/><path class="cls-3" d="M605,357.64c0,.71-.1,1.42-.14,2.14-5.44,1.89-9.33,4.44-11.67,7.59s-3.67,8.07-4,14.72q-1.95,36.69-3.88,73.37,4.94,3.78,9.79,7.62,2.05-1.36,4.13-2.71c.68,1,1.35,2.09,2,3.13q-9.39,5.61-18.52,11.44a80.83,80.83,0,0,0-11.61-9.19,46.22,46.22,0,0,0-10.46-4.2c0-.61,0-1.21,0-1.82a10.8,10.8,0,0,0,4-3.45,13.81,13.81,0,0,0,2.09-5q.21-1,.58-9.91.9-29.49,1.81-59a53,53,0,0,0-.38-10.47,14.35,14.35,0,0,0-2.62-5.69,29.72,29.72,0,0,0-7-6.16l1.64-1.62a34.85,34.85,0,0,1,16.09,9.25c5.13-4.16,9.8-6.92,13.93-8.3A39.75,39.75,0,0,1,605,357.64Z" transform="translate(-113 -45.28)"/><path class="cls-3" d="M659,393.51q11.88,15.28,22.88,30.86-23.05,9.38-45,20-.84,7.47-1.7,14.95,10,5,19.72,10.16,7.57-3.42,15.27-6.68l1.58,2.76q-15.88,6.93-31.17,14.45a102.92,102.92,0,0,0-13.62-7.88,119.79,119.79,0,0,0-15.75-5.48c.05-.69.11-1.37.17-2.06a8.67,8.67,0,0,0,4.42-3.72q1.25-2.34,2-10.4,2.16-23.54,4.31-47.07c6.17-1.32,11.33-2.5,15.48-3.6C640.56,398.92,647.63,396.74,659,393.51Zm-15.82,7.62-1.41.42q-2.12,18.65-4.24,37.29,13-6.21,26.32-12Q653.78,413.86,643.13,401.13Z" transform="translate(-113 -45.28)"/><path class="cls-3" d="M691.16,407.51q15.72-11.75,32.22-22.91l2.85.58q-2.79,11.07-5.56,22.14,9.62,2,19.18,4.15c-.68,3-1.37,6-2.05,9q-9.48-2.16-19-4.1-5.58,27.28-11.17,54.57,4.27,4.38,8.46,8.8,3.25-1.41,6.52-2.79l1.65,2.91Q713,484.77,702,490a48.9,48.9,0,0,0-19.87-16.86c.09-.54.19-1.08.28-1.63a12.46,12.46,0,0,0,5.51-3.73c1.37-1.83,2.41-4.64,3.09-8.44l8.48-46.65q-4.46-.81-8.93-1.58C690.75,409.89,691,408.7,691.16,407.51Z" transform="translate(-113 -45.28)"/><path class="cls-3" d="M768.59,415q6.88,8.1,13.52,16.31-4.54,2-9.05,4.05-5.94,21.69-11.86,43.37Q759.33,485.6,760,488c.46,1.61,1.13,2.54,2,2.79a3.8,3.8,0,0,0,1.83.08,44.86,44.86,0,0,0,5.46-1.88c.48,1,.95,2.05,1.42,3.07q-11.31,4.21-22.34,8.73c-3.78-4.25-6-7.87-6.69-10.91s-.14-7.92,1.54-14.65q5.58-22.37,11.18-44.74-2.73-3.94-5.52-7.87Q758.66,418.72,768.59,415Zm14.55-25.37q6.23,1.68,12.41,3.45-9.18,6.66-18.13,13.49l-3.84-1Q778.32,397.58,783.14,389.64Z" transform="translate(-113 -45.28)"/><path class="cls-3" d="M868.18,460.39l-22.83,57.44a143.3,143.3,0,0,0-21.32.68,45.78,45.78,0,0,0-10.29,2.58c-6.5-7.47-12.26-13-17.1-16.52a50.7,50.7,0,0,0-13.27-6.82c-.12-.62-.25-1.23-.37-1.85,2.7-1,4.57-2.1,5.57-3.29q2.05-2.3,4.07-8.68,6.81-21.65,13.61-43.28c12.32.35,23.49-.85,33.62-3.77C847,444.89,856.43,452.63,868.18,460.39ZM808.3,495.66q9.88,8,19.45,16.29,9.13-24.6,18.28-49.19c-6.32-5.73-10.93-9.57-13.72-11.61a55.43,55.43,0,0,0-7.39-4.49Z" transform="translate(-113 -45.28)"/><path class="cls-3" d="M947,482.72q3.3,8.63,6.39,17.25,6.07-1.19,12.21-2.28L967,501c-5.82.86-9.58,1.9-11.31,3q-3.48,2.28-6.46,7.94-9.22,17.4-18.44,34.82c-1.7,3.22-2.39,5.93-2.08,8.1a3.35,3.35,0,0,0,1.55,2.8c.76.41,3.06.42,6.92.08.25,1.11.51,2.22.75,3.34q-12.18,1.59-24.14,3.59c-2.87-5.37-4.4-9.56-4.48-12.58s1.17-7.17,3.82-12.45l20.24-40.44q-2.13-5.38-4.36-10.76-10,1.39-19.93,3L889.76,533.1c1.25,2.76,2.49,5.52,3.7,8.28q-9.83,1.89-19.49,4-4.83-8.68-9.92-17.31,4.29-1.38,8.63-2.7l16.91-38.64c2.4-5.49,3.37-9.48,2.88-12a4.12,4.12,0,0,0-2.21-3.3c-1.21-.52-3.44-.31-6.68.66-.4-1.1-.81-2.2-1.22-3.29q12.39-2.7,25-5c3.87,5.7,6,9.83,6.41,12.35s-.14,5.47-1.71,8.86l-1.26,2.7Q928.67,484.85,947,482.72Z" transform="translate(-113 -45.28)"/></g><path class="cls-4" d="M133.75,447l3.27,1c-6.76,9.44-10.79,18.16-12.26,26a41.74,41.74,0,0,0,4,27.92c5.41,10.3,14.41,17.67,26.64,22.53,2.14-4.11,3.17-7.15,3-9.15s-2-6.69-5.69-14.1q-8.2-16.59-16.4-33.19,12.78-22.77,27.19-45.17a234.09,234.09,0,0,0,24.78-3.57,147.26,147.26,0,0,0,19.7-6.18l2.19-.82c.88.74,1.76,1.48,2.63,2.23q-5.57,9-10.87,18.13c-10.7,3.17-23.57,4.86-38.87,5.39q19.64,42.91,39.17,85.88l3.2-1.32a73.3,73.3,0,0,0,20.49-13.05c5.67-5.21,11-12,16.25-20.47l3.5,1.3a97.83,97.83,0,0,1-9.78,21.34,71.9,71.9,0,0,1-14.52,16A82.73,82.73,0,0,1,202.16,540a75.59,75.59,0,0,1-31.47,6.85,60.3,60.3,0,0,1-30.58-7.89c-9.39-5.33-16.53-12.14-21.2-20.64-5.76-10.47-7.41-22.24-4.5-35.33C116.7,472.71,123,460.61,133.75,447Zm24.77-7.57q-3.72,6.27-7.31,12.57,8,17.1,15.94,34.19c2,4.25,3,7.2,3.17,8.84a17.37,17.37,0,0,1-1.21,7.8,195.57,195.57,0,0,1-10.36,22.91,61.11,61.11,0,0,0,19.32,3.07,69.44,69.44,0,0,0,20.13-3.56Q178.42,482.32,158.52,439.43Z" transform="translate(-113 -45.28)"/><path class="cls-4" d="M306.23,422.21q8,29.85,16,59.7a143.91,143.91,0,0,0-16.54,13.24,45.88,45.88,0,0,0-6.67,8.22c-9.65-2.12-17.54-3.08-23.55-3a50.46,50.46,0,0,0-14.75,2.47l-1.4-1.26c1.57-2.42,2.42-4.42,2.51-6q.28-3.07-1.92-9.4-7.47-21.42-14.95-42.83c10.11-7.09,18.34-14.73,24.69-23.11C280.15,422.4,292.3,423,306.23,422.21Zm-26.71,64q12.71.53,25.25,1.47Q297.41,462.5,290,437.31c-8.45-.83-14.43-1.15-17.87-1.12a54.06,54.06,0,0,0-8.59.81Q271.53,461.6,279.52,486.21Z" transform="translate(-113 -45.28)"/><path class="cls-4" d="M449.23,389l3,2a38.7,38.7,0,0,0-6.77,7.3,13,13,0,0,0-1.94,5.18,55.62,55.62,0,0,0,.5,10.16q1.82,17.07,3.62,34.14.72,6.74,2.4,8.8c1.12,1.38,2.1,2,2.95,1.94,1.19-.12,3.15-1.46,5.9-4,.81.78,1.62,1.56,2.42,2.35q-9,8.11-17.64,16.43c-4.69-2.68-7.86-4.94-9.41-6.86a18.4,18.4,0,0,1-4.09-9.38l-6.36-49.38q-5.19-3-10.47-5.84-6.72,7.13-13.21,14.37,3.47,22.07,6.95,44.13,3.86,2.76,7.66,5.56-6.9,6.65-13.56,13.4-8.64-4.17-17.48-8.17,2.6-3.87,5.25-7.73l-7.29-40.41q-1.28-7.07-2.87-8.88c-1.46-1.64-4.59-3.34-9.43-5.05q-6.45,6.83-12.71,13.74l9.45,45.06q4.08,2.54,8.11,5.12-6.6,7-13,14.1-8.94-3.72-18.08-7.23,2.63-4.06,5.3-8.09-5-21.54-10-43.07c-1-4.45-2.43-7.52-4.2-9.2q-2.06-1.91-3.33-1.59c-1,.24-2.84,1.78-5.42,4.63l-2.91-1.92q8-9.48,16.29-18.81c4.94,1.6,8.34,3.08,10.26,4.39a14.33,14.33,0,0,1,4.42,4.68,39.21,39.21,0,0,1,2.32,8.21q11.88-13,24.49-25.59c7.06,3.13,11.72,6,14.08,8.44a21.13,21.13,0,0,1,5,10.08q11.52-12.65,23.72-25,8.71,5.28,17.22,10.71Q444.78,393.29,449.23,389Z" transform="translate(-113 -45.28)"/><path class="cls-4" d="M461.68,395.71q9.56-7.18,19.41-14.16c5.47,2.76,9.1,5.44,10.94,8s2.86,6.15,3.07,10.78Q507,390,519.48,380c8.63,5.09,14.27,9.58,17.1,13.33,1.79,2.42,2.67,6,2.65,10.83q-.11,23.15-.19,46.28c-7.85,3.22-16.61,9.14-26,17.83a113.65,113.65,0,0,0-15.14-6.72l.27,5.87q.48,10.32,2.84,14.68c1.57,2.91,4.26,5.41,8,7.54l-1,2.27c-6.33-1.93-11.14-3.75-14.37-5.57a23,23,0,0,1-6.32-5.52,39.51,39.51,0,0,1-11.22,8l-1.33-1.55a21,21,0,0,0,4.71-7.35,26.43,26.43,0,0,0,.83-10q-.41-6-.82-12a53.75,53.75,0,0,0-10.4-.13c-.3,0-.77.09-1.42.19-.19-2.3-.39-4.61-.58-6.91a90.21,90.21,0,0,1,11.74-2.8l-2.82-41.06c-.3-4.45-1.22-7.48-2.78-9.08s-3.08-2.35-4.58-2.24c-1.17.1-2.64.93-4.44,2.51Zm33.61,8.83,2,42.68c7.09,1,11.9,1.86,14.47,2.48a65.92,65.92,0,0,1,9,3l-.84-46.37a16,16,0,0,0-.41-4.5,10.69,10.69,0,0,0-2.87-2.47,97.17,97.17,0,0,0-8.78-5.72Q501.49,399,495.29,404.54Z" transform="translate(-113 -45.28)"/><path class="cls-4" d="M599.09,351.73l-.15,2.15c-5.44,1.89-9.32,4.44-11.66,7.59s-3.68,8.06-4,14.72q-1.93,36.68-3.88,73.37,4.95,3.76,9.8,7.61l4.12-2.7c.68,1,1.35,2.08,2,3.13q-9.39,5.61-18.51,11.43a81.57,81.57,0,0,0-11.61-9.19,46.45,46.45,0,0,0-10.46-4.19c0-.61,0-1.22,0-1.82a11.07,11.07,0,0,0,4-3.45,14.15,14.15,0,0,0,2.09-5c.14-.65.33-4,.57-9.9q.9-29.49,1.81-59a52.43,52.43,0,0,0-.37-10.47,14.68,14.68,0,0,0-2.62-5.7,29.5,29.5,0,0,0-7-6.15l1.64-1.62A34.75,34.75,0,0,1,571,361.81c5.14-4.15,9.8-6.91,13.93-8.29A39.8,39.8,0,0,1,599.09,351.73Z" transform="translate(-113 -45.28)"/><path class="cls-4" d="M653.05,387.61q11.87,15.27,22.87,30.86-23.05,9.38-45,20-.86,7.47-1.7,14.94,10,5,19.72,10.16,7.56-3.4,15.27-6.68l1.57,2.76q-15.87,6.93-31.16,14.46A103.56,103.56,0,0,0,621,466.19a119.26,119.26,0,0,0-15.76-5.49l.18-2.05a8.74,8.74,0,0,0,4.41-3.72q1.26-2.34,2-10.4Q614,421,616.17,397.45q9.26-2,15.47-3.6C634.65,393,641.72,390.84,653.05,387.61Zm-15.83,7.62-1.4.42q-2.13,18.64-4.25,37.28,13-6.19,26.33-12Q647.88,408,637.22,395.23Z" transform="translate(-113 -45.28)"/><path class="cls-4" d="M685.26,401.6q15.71-11.73,32.22-22.91l2.84.58q-2.79,11.07-5.55,22.15,9.6,2,19.18,4.14c-.69,3-1.37,6-2.06,9q-9.46-2.16-19-4.11-5.58,27.3-11.17,54.58c2.85,2.91,5.67,5.85,8.46,8.79q3.24-1.41,6.52-2.79l1.65,2.92q-11.29,4.88-22.28,10.08a48.94,48.94,0,0,0-19.87-16.85c.09-.54.18-1.09.28-1.63a12.52,12.52,0,0,0,5.51-3.73c1.36-1.83,2.4-4.65,3.09-8.44l8.48-46.66q-4.47-.81-8.94-1.57C684.85,404,685.05,402.79,685.26,401.6Z" transform="translate(-113 -45.28)"/><path class="cls-4" d="M762.68,409.11q6.9,8.1,13.52,16.31-4.55,2-9.05,4.05-5.92,21.67-11.86,43.36c-1.25,4.57-1.64,7.67-1.18,9.28s1.13,2.54,2,2.78A3.85,3.85,0,0,0,758,485a44.35,44.35,0,0,0,5.46-1.89l1.41,3.08q-11.3,4.2-22.33,8.73c-3.79-4.25-6-7.88-6.69-10.91s-.15-7.92,1.53-14.66l11.19-44.74c-1.83-2.62-3.67-5.25-5.52-7.86Q752.76,412.8,762.68,409.11Zm14.56-25.38c4.14,1.12,8.28,2.28,12.41,3.45q-9.18,6.66-18.13,13.5l-3.84-1Q772.41,391.67,777.24,383.73Z" transform="translate(-113 -45.28)"/><path class="cls-4" d="M862.28,454.48l-22.84,57.45a143.48,143.48,0,0,0-21.31.67,45.81,45.81,0,0,0-10.29,2.59c-6.5-7.47-12.26-13-17.1-16.52a50.71,50.71,0,0,0-13.27-6.83c-.13-.61-.25-1.23-.38-1.84,2.7-1,4.57-2.1,5.58-3.29q2.05-2.29,4.07-8.69,6.79-21.63,13.61-43.28A109.62,109.62,0,0,0,834,431C841.08,439,850.52,446.73,862.28,454.48ZM802.4,489.75q9.89,8,19.44,16.3l18.29-49.2c-6.32-5.73-10.94-9.56-13.72-11.6a56.09,56.09,0,0,0-7.39-4.49Z" transform="translate(-113 -45.28)"/><path class="cls-4" d="M941.06,476.81q3.29,8.63,6.38,17.26,6.09-1.19,12.22-2.29l1.44,3.32c-5.82.86-9.58,1.9-11.32,3q-3.48,2.3-6.46,7.94L924.89,540.9q-2.57,4.85-2.08,8.1a3.33,3.33,0,0,0,1.54,2.8c.77.42,3.07.43,6.93.09l.75,3.33q-12.18,1.6-24.14,3.59c-2.88-5.37-4.4-9.55-4.49-12.57s1.18-7.17,3.83-12.45l20.24-40.45q-2.15-5.38-4.36-10.76-10,1.4-19.93,3L883.85,527.2c1.26,2.75,2.49,5.51,3.71,8.27q-9.82,1.89-19.5,4-4.83-8.68-9.92-17.32,4.3-1.37,8.64-2.7,8.44-19.32,16.9-38.63,3.62-8.24,2.89-12a4.09,4.09,0,0,0-2.22-3.29c-1.21-.52-3.44-.31-6.68.65-.4-1.09-.8-2.19-1.21-3.29q12.39-2.68,25-5c3.88,5.7,6,9.84,6.42,12.35s-.14,5.48-1.72,8.87c-.41.9-.83,1.8-1.25,2.7Q922.77,478.94,941.06,476.81Z" transform="translate(-113 -45.28)"/><g class="cls-2"><path class="cls-3" d="M544.39,250.62v51.6a128.67,128.67,0,0,0-15,6.9,37.45,37.45,0,0,0-6.78,5,96.38,96.38,0,0,0-16.57-8.42,37.79,37.79,0,0,0-11.26-2.07l-.69-1.38a11,11,0,0,0,3.31-4q1-2.34,1-7.94V252.41A64.14,64.14,0,0,0,520,240.54Q529.81,247,544.39,250.62Zm-32.08,44.91,18,7.38V259.1q-8.49-4-12-5.23a36.64,36.64,0,0,0-6-1.53Z" transform="translate(-113 -45.28)"/><path class="cls-3" d="M590.61,218.54,588.44,230l-12.66-2.9v16.63h10.69v7.72H575.78v46.3l7.8,5.86,5.38-4.35,1.58,1.93-16,12.91A46.53,46.53,0,0,0,557,303.6l-.41-1.66a9.83,9.83,0,0,0,3.45-3.31,13.32,13.32,0,0,0,1.66-6.83V251.44h-6.49v-7.72h6.49V227.09a142.22,142.22,0,0,0,15.69-11.87Z" transform="translate(-113 -45.28)"/></g><path class="cls-4" d="M541.39,247.62v51.6a128.67,128.67,0,0,0-15,6.9,37.45,37.45,0,0,0-6.78,5,96.38,96.38,0,0,0-16.57-8.42,37.79,37.79,0,0,0-11.26-2.07l-.69-1.38a11,11,0,0,0,3.31-4q1-2.34,1-7.94V249.41A64.14,64.14,0,0,0,517,237.54Q526.81,244,541.39,247.62Zm-32.08,44.91,18,7.38V256.1q-8.49-4-12-5.23a36.64,36.64,0,0,0-6-1.53Z" transform="translate(-113 -45.28)"/><path class="cls-4" d="M587.61,215.54,585.44,227l-12.66-2.9v16.63h10.69v7.72H572.78v46.3l7.8,5.86,5.38-4.35,1.58,1.93-16,12.91A46.53,46.53,0,0,0,554,300.6l-.41-1.66a9.83,9.83,0,0,0,3.45-3.31,13.32,13.32,0,0,0,1.66-6.83V248.44h-6.49v-7.72h6.49V224.09a142.22,142.22,0,0,0,15.69-11.87Z" transform="translate(-113 -45.28)"/></g></g></svg>